<?xml version="1.0" ?><!DOCTYPE svg  PUBLIC '-//W3C//DTD SVG 1.1//EN'  'http://www.w3.org/Graphics/SVG/1.1/DTD/svg11.dtd'><svg height="512px" style="shape-rendering:geometricPrecision; text-rendering:geometricPrecision; image-rendering:optimizeQuality; fill-rule:evenodd; clip-rule:evenodd" version="1.1" viewBox="0 0 512 512" width="512px" xml:space="preserve" xmlns="http://www.w3.org/2000/svg" xmlns:xlink="http://www.w3.org/1999/xlink"><defs><style type="text/css">
   <![CDATA[
    .str0 {stroke:black;stroke-width:31.9998;stroke-linecap:round;stroke-linejoin:round}
    .str1 {stroke:black;stroke-width:31.9998;stroke-linecap:round;stroke-linejoin:round}
    .fil0 {fill:none}
   ]]>
  </style></defs><g id="Layer_x0020_1"><g id="_837101199520"><path class="fil0 str0" d="M476 336c11,0 20,9 20,20 0,11 -9,20 -20,20l-8 0c11,0 20,9 20,20 0,11 -9,20 -20,20l-8 0c11,0 20,9 20,20 0,11 -9,20 -20,20l-8 0c11,0 20,9 20,20 0,11 -9,20 -20,20l-20 0 -72 0 -40 -16 0 16 -48 0 0 -160 48 0 0 16c32,-16 56,-48 56,-88 0,-12 6,-24 21,-24 25,0 27,32 27,48 0,16 -3,33 -8,48l40 0 20 0z"/><path class="fil0 str1" d="M272 284c14,-12 24,-28 29,-46 20,-6 35,-24 35,-46 0,-17 -8,-31 -21,-40 3,-10 5,-21 5,-32 0,-57 -47,-104 -104,-104 -57,0 -104,47 -104,104 0,11 2,22 5,32 -13,9 -21,23 -21,40 0,22 15,40 35,46 5,18 15,34 29,46l0 20c0,64 -144,64 -144,128l192 0"/></g></g></svg>