<?xml version="1.0" encoding="UTF-8" standalone="no"?>
<!-- Creator: CorelDRAW -->
<svg
   xmlns:dc="http://purl.org/dc/elements/1.1/"
   xmlns:cc="http://web.resource.org/cc/"
   xmlns:rdf="http://www.w3.org/1999/02/22-rdf-syntax-ns#"
   xmlns:svg="http://www.w3.org/2000/svg"
   xmlns="http://www.w3.org/2000/svg"
   xmlns:sodipodi="http://sodipodi.sourceforge.net/DTD/sodipodi-0.dtd"
   xmlns:inkscape="http://www.inkscape.org/namespaces/inkscape"
   xml:space="preserve"
   width="744"
   height="865.50269"
   style="shape-rendering:geometricPrecision; text-rendering:geometricPrecision; image-rendering:optimizeQuality; fill-rule:evenodd; clip-rule:evenodd"
   viewBox="0 0 210 297"
   sodipodi:version="0.32"
   inkscape:version="0.45.1"
   sodipodi:docname="POL powiat stargardzki COA.svg"
   inkscape:output_extension="org.inkscape.output.svg.inkscape"
   sodipodi:docbase="C:\Users\Mistrz\Desktop"
   id="svg2"
   version="1.0"><metadata
   id="metadata28"><rdf:RDF><cc:Work
       rdf:about=""><dc:format>image/svg+xml</dc:format><dc:type
         rdf:resource="http://purl.org/dc/dcmitype/StillImage" /></cc:Work></rdf:RDF></metadata><sodipodi:namedview
   inkscape:window-height="480"
   inkscape:window-width="640"
   inkscape:pageshadow="2"
   inkscape:pageopacity="0.0"
   guidetolerance="10.0"
   gridtolerance="10.0"
   objecttolerance="10.0"
   borderopacity="1.0"
   bordercolor="#666666"
   pagecolor="#ffffff"
   id="namedview26" />
 <defs
   id="defs4">
  <style
   type="text/css"
   id="style6">
   
    .fil2 {fill:#0093DD}
    .fil0 {fill:#0A0B0C}
    .fil4 {fill:#C0A062}
    .fil3 {fill:#DA251D}
    .fil1 {fill:white}
   
  </style>
 </defs>
 <g
   id="Warstwa_x0020_1"
   transform="matrix(1.2157151,0,0,1.2157151,-22.652983,-32.033857)">
  <metadata
   id="CorelCorpID_0Corel-Layer" />
  <sodipodi:namedview
   inkscape:window-height="974"
   inkscape:window-width="1280"
   inkscape:pageshadow="2"
   inkscape:pageopacity="0.0"
   guidetolerance="10.0"
   gridtolerance="10.0"
   objecttolerance="10.0"
   borderopacity="1.0"
   bordercolor="#666666"
   pagecolor="#ffffff"
   id="base"
   inkscape:zoom="0.37439582"
   inkscape:cx="807.02682"
   inkscape:cy="946.11673"
   inkscape:window-x="-8"
   inkscape:window-y="-8"
   inkscape:current-layer="svg2" />
  <sodipodi:namedview
   inkscape:window-height="974"
   inkscape:window-width="1280"
   inkscape:pageshadow="2"
   inkscape:pageopacity="0.0"
   guidetolerance="10.0"
   gridtolerance="10.0"
   objecttolerance="10.0"
   borderopacity="1.0"
   bordercolor="#666666"
   pagecolor="#ffffff"
   id="namedview11"
   inkscape:zoom="0.37439582"
   inkscape:cx="807.02682"
   inkscape:cy="946.11673"
   inkscape:window-x="-8"
   inkscape:window-y="-8"
   inkscape:current-layer="svg2" />
  <sodipodi:namedview
   inkscape:window-height="974"
   inkscape:window-width="1280"
   inkscape:pageshadow="2"
   inkscape:pageopacity="0.0"
   guidetolerance="10.0"
   gridtolerance="10.0"
   objecttolerance="10.0"
   borderopacity="1.0"
   bordercolor="#666666"
   pagecolor="#ffffff"
   id="namedview13"
   inkscape:zoom="3.1321631"
   inkscape:cx="955.97149"
   inkscape:cy="515.08966"
   inkscape:window-x="-8"
   inkscape:window-y="-8"
   inkscape:current-layer="svg2" />
  <g
   id="_104241768">
   <path
   id="path10"
   class="fil0"
   d="M 0,26.3498 L 0,176.6038 C 0.0443,207.9299 13.4108,231.6219 33.3204,247.2857 C 53.2299,262.9494 79.5726,270.6917 105.8391,270.6503 C 132.1056,270.609 158.3306,262.7939 177.9536,247.102 C 197.5766,231.4101 210.5334,207.7328 209.9882,176.5671 L 209.9882,26.3501 L 0.0002,26.3501 L 0,26.3498 z "
   style="fill:#0a0b0c" />
   <path
   id="path10_0"
   class="fil1"
   d="M 3.9308,30.2806 L 206.0208,30.2806 L 206.0208,176.6036 L 206.0208,176.6403 C 206.5464,206.6878 194.2709,228.9992 175.4924,244.0159 C 156.7138,259.0325 131.3247,266.6424 105.8392,266.6825 C 80.3536,266.7227 54.816,259.2035 35.7451,244.1995 C 16.6742,229.1956 3.9736,206.8169 3.9309,176.6036 L 3.9309,30.2806 L 3.9308,30.2806 z "
   style="fill:#ffffff" />
   <path
   id="path12"
   class="fil0"
   d="M 22.5932,160.513 C 22.3385,160.5484 22.1331,160.7392 22.0789,160.9906 C 21.1599,165.2436 21.6315,170.2272 23.034,175.5751 C 22.2963,173.3364 21.3767,171.1554 20.7196,168.889 C 20.6517,168.6252 20.4178,168.438 20.1456,168.4295 C 19.8734,168.421 19.6283,168.5933 19.544,168.8522 C 16.5101,179.1504 21.8275,191.6678 26.1199,200.299 C 27.123,209.2364 29.9881,215.2956 34.2021,219.292 C 34.946,223.537 34.5781,227.1596 34.1653,231.1581 C 33.985,233.1977 34.7068,235.1113 36.0757,236.7788 C 37.4445,238.4463 39.4346,239.905 41.9168,241.1505 C 41.9623,241.1815 42.0117,241.2062 42.0638,241.224 C 43.3764,241.493 44.6361,241.2439 45.6272,240.4892 C 46.4603,239.8549 47.0575,238.8333 47.5743,237.587 C 60.2012,247.1457 78.0513,252.8912 102.5147,255.8019 C 102.5395,255.8119 102.5651,255.8201 102.5913,255.8268 C 109.0432,261.3011 116.2463,263.1249 123.73,260.1435 C 123.9641,260.059 124.1239,259.8412 124.1341,259.5925 C 124.1319,258.0698 123.4696,256.6729 122.2605,255.6616 C 121.5128,255.0362 120.4923,254.601 119.3583,254.2656 C 138.5265,248.7178 154.7767,240.36 167.3734,227.5211 C 171.9138,226.194 174.9641,224.0569 176.6311,221.2023 C 178.3135,218.3215 178.5562,214.7546 177.6965,210.7691 C 177.6547,210.5703 177.5171,210.4052 177.3291,210.3282 C 175.7985,209.7307 174.0702,210.0143 172.2962,210.8425 C 171.1891,211.3594 170.0244,212.426 168.8796,213.3406 C 169.3075,212.4718 169.8593,211.5555 170.1654,210.8058 C 170.4556,210.0951 170.6965,209.4843 170.9002,209.0057 C 171.213,208.2704 171.6249,207.8128 172.1156,207.195 L 188.5338,186.5227 C 191.067,183.3387 191.6328,178.7189 191.1422,174.9138 C 190.8969,173.0113 190.3999,171.318 189.6727,170.0645 C 189.3092,169.4378 188.8886,168.8856 188.3869,168.5216 C 187.8853,168.1575 187.2826,167.9641 186.6603,168.044 C 186.648,168.0437 186.6358,168.0437 186.6235,168.044 C 183.5515,168.6259 180.9001,171.3455 178.3945,173.3342 C 177.1417,174.3284 175.9287,175.1583 174.831,175.5016 C 173.7333,175.845 172.7745,175.7842 171.7084,174.9873 C 171.6967,174.9745 171.6844,174.9623 171.6716,174.9506 C 168.3557,172.912 166.1338,171.7831 164.4712,171.1666 C 162.8085,170.5502 161.701,170.4551 160.724,170.3952 C 160.6996,170.3937 160.675,170.3937 160.6506,170.3952 C 159.5947,170.4226 158.7721,170.5228 158.079,170.7626 C 157.3857,171.0023 156.8158,171.4217 156.4993,172.0116 C 155.8661,173.1913 156.1308,174.7206 156.6095,176.9711 C 158.5219,185.7146 160.2344,195.3168 161.0652,199.6629 C 161.1781,200.2536 161.3577,200.9863 161.2383,201.5848 C 161.1428,202.0635 160.9155,202.6696 160.5036,203.3482 C 159.8436,204.4352 158.4817,205.7054 156.536,206.9117 C 157.3184,204.6059 157.8423,202.7673 157.7851,201.5113 C 157.6992,199.6264 156.1344,198.9094 154.4271,199.2985 C 150.7564,200.1361 147.65,201.9133 145.368,204.8544 C 143.1302,207.7385 141.7223,211.7623 141.1432,216.9409 C 112.9086,230.3002 82.5316,220.631 54.1502,197.8377 C 50.0187,190.2023 45.6437,185.8242 41.1453,182.9959 C 33.1837,177.2528 28.0294,169.2564 23.2177,160.8436 C 23.1005,160.6123 22.8504,160.4799 22.5932,160.513 L 22.5932,160.513 L 22.5932,160.513 z "
   style="fill:#0a0b0c" />
   <path
   id="path12_1"
   class="fil2"
   d="M 166.249,215.594 C 164.3888,218.0363 163.8993,220.2524 164.1041,222.1573 C 164.3287,224.2463 165.3656,225.9247 166.077,227.0986 C 154.1406,239.0953 138.9699,247.1614 120.9937,252.6046 C 119.4675,253.0668 117.9201,253.5176 116.364,253.866 C 112.6697,254.6933 108.814,255.0998 104.7085,254.8093 C 103.1887,254.7017 101.6533,254.4913 100.1427,254.2959 C 76.8954,251.2871 59.9123,245.6039 47.9527,236.4327 C 48.7271,231.7495 48.7254,227.0795 48.1991,222.4145 C 48.184,222.2469 48.1007,222.093 47.9687,221.9888 C 47.8367,221.8846 47.6676,221.8392 47.5011,221.8634 C 47.3403,221.8876 47.1957,221.9748 47.0992,222.1057 C 47.0027,222.2367 46.9623,222.4006 46.9868,222.5614 C 47.5199,227.2875 47.4908,232.0109 46.6605,236.7169 C 46.1683,238.0784 45.5776,238.9758 44.8928,239.4971 C 44.1946,240.0288 43.3984,240.2001 42.3947,240.0114 C 40.055,238.828 38.196,237.471 36.9944,236.0071 C 35.7793,234.5269 35.2281,232.9635 35.3779,231.2681 C 35.772,227.4504 36.1827,223.8495 35.5384,219.6641 C 40.1425,219.427 43.5691,218.4295 45.848,216.5733 C 48.2487,214.6179 49.24,211.7112 48.7869,208.087 C 48.7749,207.9038 48.6812,207.7355 48.5318,207.6287 C 48.3823,207.522 48.1928,207.4879 48.0154,207.536 C 47.7102,207.6198 47.5191,207.9224 47.5746,208.234 C 47.9923,211.5758 47.1509,213.9285 45.0765,215.6181 C 43.0571,217.263 39.7359,218.2695 35.0979,218.4689 C 31.0708,214.6722 28.2562,208.8332 27.2958,199.9314 C 27.2815,199.8667 27.2566,199.8046 27.2223,199.7478 C 23.2729,191.8063 18.6765,180.6639 20.2791,171.3869 C 24.0769,183.9407 28.9949,196.0992 35.4147,208.087 C 36.1156,209.3973 37.3737,209.8944 38.3537,209.5565 C 39.3335,209.2187 39.8904,208.0615 39.4925,206.838 C 39.4747,206.786 39.45,206.7365 39.419,206.6911 C 29.4041,191.241 21.7265,174.3919 23.1078,163.0109 C 27.6976,170.8904 32.7694,178.449 40.4476,183.9876 C 40.4594,184.0004 40.4716,184.0127 40.4844,184.0244 C 44.8364,186.7606 49.0819,190.9513 53.1586,198.5355 C 53.191,198.6188 53.2411,198.694 53.3056,198.7559 C 81.857,221.7081 112.785,231.6636 141.5135,218.1559 C 141.5888,218.1446 141.6629,218.1194 141.7313,218.0795 C 147.2258,216.2551 152.0259,212.7731 155.9384,208.7713 C 157.4682,207.9931 158.6702,207.1496 159.6039,206.3035 C 159.9479,205.9918 160.2693,205.6971 160.6141,205.4053 C 161.863,204.3785 162.9232,203.712 163.8102,203.3848 C 164.6972,203.0575 165.3652,203.0571 166.0144,203.2745 C 167.8811,203.8997 169.1399,206.4563 170.0335,207.9844 C 169.9572,208.1486 169.8831,208.3287 169.7983,208.5279 C 169.5815,209.0377 169.312,209.6665 169.0268,210.3648 C 168.5724,211.4776 168.0074,212.764 167.2907,214.0128 C 166.9752,214.5626 166.6332,215.0896 166.249,215.594 L 166.249,215.594 z M 167.0343,226.3524 C 166.3377,225.1897 165.5003,223.7568 165.3164,222.0471 C 165.1228,220.246 165.6085,218.0945 167.9043,215.5015 C 169.6028,213.8909 171.2918,212.6536 172.8108,211.9444 C 174.2598,211.2679 175.4968,211.1287 176.5579,211.4301 C 177.2654,215.0337 176.9969,218.1273 175.566,220.5776 C 174.0893,223.1064 171.3875,225.0836 167.0343,226.3524 L 167.0343,226.3524 z M 166.4186,202.099 C 165.4856,201.7865 164.4511,201.8468 163.3694,202.2459 C 162.9678,202.3941 162.554,202.5872 162.1255,202.8269 C 162.2604,202.4638 162.3512,202.1208 162.4142,201.8051 C 162.584,200.9543 162.3832,200.2687 162.2262,199.4512 C 161.4104,195.2084 159.7118,185.5266 157.7854,176.7137 C 157.3178,174.5158 157.2787,173.1643 157.6017,172.5625 C 157.7632,172.2615 157.9908,172.0715 158.4833,171.9012 C 158.9678,171.7337 159.6831,171.6352 160.6509,171.6073 C 160.6605,171.6079 160.6779,171.6067 160.6876,171.6073 C 161.6201,171.6652 162.5361,171.7742 164.0674,172.342 C 165.5984,172.9097 167.7548,173.9685 170.9739,175.9423 C 170.9978,175.9601 171.0234,175.9617 171.0474,175.979 C 172.3785,176.9396 173.853,177.0612 175.1987,176.6402 C 176.5686,176.2118 177.874,175.3147 179.1663,174.2891 C 181.7409,172.2458 184.3303,169.7406 186.8075,169.2561 C 186.8189,169.2547 186.833,169.2572 186.8443,169.2561 C 187.1168,169.2293 187.3555,169.2977 187.6525,169.5133 C 187.9619,169.7378 188.3043,170.1292 188.6077,170.6521 C 189.2144,171.6981 189.7009,173.2827 189.9302,175.0606 C 190.3886,178.6163 189.8001,182.9592 187.579,185.751 L 170.8307,206.8482 C 169.4754,204.3875 168.1753,202.6873 166.4186,202.099 L 166.4186,202.099 z M 154.8369,208.1494 C 151.3221,211.6956 147.1165,214.7915 142.3843,216.5785 C 142.9772,211.7796 144.3578,208.2064 146.3602,205.6257 C 148.4705,202.9059 151.2728,201.2662 154.7362,200.4825 C 155.7367,200.3944 156.5188,200.3572 156.573,201.5479 C 156.6236,202.6585 156.0165,204.859 154.8464,208.1238 C 154.8431,208.1323 154.8398,208.1408 154.8369,208.1494 L 154.8369,208.1494 z M 104.7516,256.0357 C 109.082,256.3264 113.1519,255.8649 117.018,254.9684 C 119.0166,255.183 120.4969,255.7804 121.4526,256.5798 C 122.2759,257.2684 122.6585,258.1482 122.7751,259.1147 C 116.4047,261.4653 110.41,260.2936 104.7516,256.0357 L 104.7516,256.0357 z "
   style="fill:#0093dd" />
   <path
   id="path64"
   class="fil0"
   d="M 95.9568,35.4972 C 93.8931,35.724 93.6865,36.5949 92.577,38.1423 C 88.5232,37.2355 84.9711,36.56 82.5111,36.3422 C 81.2361,36.2293 80.2417,36.2242 79.4987,36.4157 C 78.9021,36.5694 78.5133,36.7395 78.5018,37.3697 C 78.4791,37.3688 78.4563,37.3692 78.4334,37.3708 C 76.7706,37.5281 75.4227,37.9941 74.4658,38.7301 C 73.694,39.3237 73.2837,40.1588 73.1432,41.0445 C 69.8921,40.7989 67.6351,41.2762 66.4938,42.7344 C 65.8885,43.5079 65.6303,44.5065 65.6856,45.5999 C 65.7409,46.6933 66.0728,47.8926 66.6408,49.2368 C 66.7062,49.4134 66.8492,49.55 67.0284,49.6074 C 67.2077,49.6648 67.4035,49.6365 67.5592,49.5307 C 71.6292,46.8324 75.3735,47.0201 78.2129,48.4286 C 79.0257,48.8319 79.7416,49.3392 80.3553,49.9072 C 79.2455,50.3132 78.1423,50.4853 76.9271,50.4859 C 74.9231,50.4869 72.966,50.4242 71.1177,51.2994 C 69.6203,52.0088 68.404,52.1579 66.9714,51.9921 C 65.3769,51.8076 63.5101,51.1803 60.8731,50.3757 C 60.6151,50.2687 60.3179,50.3696 60.1783,50.6114 C 59.8713,51.1437 60.5186,51.4294 60.8716,51.7074 C 63.1269,53.4832 65.8902,54.6401 69.5114,54.4145 C 71.3171,54.302 72.9787,53.5724 74.7964,53.3881 C 74.9835,53.3692 75.1549,53.3608 75.3028,53.3599 C 76.6378,55.8804 79.8634,58.4153 81.814,59.476 C 79.8455,63.1394 76.3891,65.8588 70.4982,67.8257 C 70.2623,67.9275 70.1269,68.1776 70.1705,68.4307 C 70.2142,68.6839 70.4255,68.8742 70.6818,68.8911 L 74.2086,68.8544 C 68.7083,72.8475 64.8155,76.2015 58.8158,78.4427 C 58.5826,78.5398 58.4441,78.7818 58.4787,79.032 C 58.5132,79.2822 58.712,79.4778 58.9628,79.5081 C 60.1083,79.6656 61.3416,79.6245 62.6365,79.4713 C 61.6231,80.0846 60.9397,80.7185 60.4322,81.3817 C 58.2006,81.2865 56.5881,81.016 55.583,80.5734 C 54.5395,80.114 54.047,79.5677 53.8196,78.9203 C 53.7225,78.6871 53.4805,78.5486 53.2303,78.5832 C 52.98,78.6177 52.7845,78.8165 52.7542,79.0672 L 52.7175,81.198 C 48.3564,79.9256 44.8235,78.6955 42.5413,77.1202 C 40.1544,75.4726 39.0194,73.5328 39.235,70.5443 C 39.9099,68.8147 40.8707,67.2248 41.5862,65.8787 C 41.9496,65.195 42.2684,64.5859 42.4311,64.0051 C 42.5939,63.4244 42.6118,62.8071 42.2474,62.3152 C 42.1539,62.1908 42.0127,62.1114 41.8582,62.096 C 41.9659,60.4552 41.737,59.053 41.1086,57.87 C 40.4066,56.5484 39.2307,55.5308 37.5819,54.7107 C 37.4446,54.6439 37.2874,54.6308 37.141,54.6739 C 36.8187,54.7581 36.6229,55.0846 36.7002,55.4087 C 37.1227,57.1183 37.6749,58.0925 37.9125,58.8252 C 38.1383,59.5216 38.2009,60.0167 37.6699,61.2366 C 37.5648,61.245 37.4501,61.2496 37.3247,61.2498 C 37.1316,61.2468 36.9509,61.3442 36.8471,61.507 C 36.395,62.1623 35.8307,63.4782 36.3328,65.2174 C 36.4975,65.7881 36.258,66.7994 35.892,67.8625 C 35.6167,68.6619 35.4129,69.448 35.2674,70.2136 C 35.1354,70.0903 34.9546,69.8508 34.7899,69.4054 C 34.4605,68.5147 34.1263,66.8295 33.7612,63.8214 C 33.7423,63.6657 33.8387,63.4162 34.0184,63.0867 C 34.198,62.7571 34.4399,62.3731 34.6429,61.9111 C 34.846,61.4491 35.0052,60.8667 34.8633,60.2579 C 34.7214,59.6491 34.3268,59.0549 33.6143,58.4578 C 33.4987,58.354 33.3497,58.3061 33.203,58.3166 C 31.5119,56.5539 29.3217,54.9748 27.0751,54.7841 C 26.7885,54.7407 26.5223,54.9325 26.4424,55.2121 C 26.3814,55.4257 26.4408,55.6555 26.5975,55.8128 C 27.6828,56.9777 29.2973,58.6974 29.2423,60.4158 C 29.1204,60.485 29.0276,60.5988 28.9854,60.7355 C 28.5267,62.2708 29.0161,64.1784 29.6099,66.0256 C 30.0131,67.2798 30.3328,68.2604 30.6753,69.2952 C 29.8414,68.5448 29.0597,67.5506 28.4344,66.393 C 27.9729,65.5388 27.5795,64.7082 27.222,64.0418 C 27.0433,63.7087 26.8853,63.4002 26.7077,63.1601 C 26.5302,62.9201 26.3469,62.7039 25.973,62.6091 C 25.9002,62.5944 25.8253,62.5944 25.7526,62.6091 C 25.3981,62.6819 25.1936,62.6554 25.0163,62.5977 C 23.7945,60.9652 21.837,60.174 19.2501,60.2212 C 18.9552,60.1857 18.6889,60.4114 18.6312,60.6999 C 18.5833,60.9392 18.6822,61.1842 18.8828,61.3233 C 19.639,61.9114 20.5093,62.7354 21.1972,63.601 C 21.6868,64.2171 22.0718,64.8508 22.2818,65.4025 C 22.0985,65.5543 21.9523,65.6803 21.9686,65.9522 C 22.0072,66.6402 22.0556,67.496 22.4095,68.2666 C 22.7635,69.0371 23.5159,69.6847 24.6505,69.8095 C 25.4863,69.9016 26.6295,70.9239 27.6996,72.0138 C 28.2347,72.5587 28.7756,73.1146 29.2793,73.5567 C 29.6396,73.873 30.023,73.9931 30.4181,74.1445 C 30.5132,75.1671 30.5926,75.8818 30.8957,76.3854 C 31.1528,76.8126 31.573,77.0569 32.0346,77.3406 C 31.6654,77.897 31.3594,78.4893 31.1162,79.1039 C 30.9533,79.5156 30.7725,79.9213 30.6018,80.1693 C 30.4311,80.4174 30.2803,80.4793 30.161,80.5 C 28.9233,80.7146 28.1269,81.2855 27.7731,82.0429 C 27.5254,82.5733 27.5667,83.1476 27.7587,83.6651 C 27.4934,83.7697 27.0786,83.8429 26.5975,83.8798 C 25.6177,83.955 24.411,83.8797 23.4749,83.9165 C 23.2407,83.9178 23.0278,84.0523 22.9263,84.2633 C 22.8247,84.4742 22.8522,84.7246 22.9973,84.9084 C 24.1785,86.4033 25.262,87.3255 26.5608,87.6637 C 27.8544,88.0005 29.2572,87.7471 31.058,87.1926 C 31.1239,87.2485 31.1918,87.2967 31.2631,87.3331 C 31.6101,87.5097 32.0147,87.5206 32.3652,87.4065 C 33.0663,87.1783 33.4757,86.5738 33.9082,85.8268 C 34.7182,84.4277 35.5909,82.3506 36.7369,80.4633 C 39.83,81.1092 42.5422,84.1802 43.9374,86.7085 C 43.9448,86.7219 43.9668,86.7319 43.9741,86.7452 C 44.2395,87.8201 44.7118,88.679 45.4435,89.1699 C 45.796,89.4063 46.1948,89.5236 46.6192,89.574 C 45.9468,90.3809 45.4967,91.2152 45.5538,92.1823 C 45.5656,92.3771 45.6786,92.5514 45.8516,92.6417 C 46.0246,92.7319 46.2322,92.7249 46.3987,92.6232 C 48.4922,91.234 50.9329,90.8532 53.5991,91.0435 C 52.2707,92.7653 51.1086,93.6139 50.1459,93.5783 C 49.8314,93.5682 49.5682,93.8149 49.5581,94.1294 C 49.548,94.4438 49.7947,94.707 50.1091,94.7172 C 51.9398,94.823 53.641,94.3502 55.2891,93.5783 C 54.9446,93.9899 54.4293,94.4779 54.1502,94.8641 C 53.6471,95.5603 53.2502,96.2276 53.0114,96.8479 C 52.7919,97.418 52.7356,97.9708 52.8644,98.5011 L 52.8277,98.5011 C 53.2012,103.7281 52.9952,107.2165 52.1664,109.4119 C 51.3376,111.6074 49.9895,112.5892 47.6845,113.0489 C 47.4899,113.0907 47.3325,113.2334 47.2718,113.423 C 47.2111,113.6127 47.2564,113.8202 47.3906,113.9673 C 48.1663,114.795 49.7009,115.1898 51.6888,115.4368 C 49.0872,117.8656 46.3493,119.8914 43.9374,121.0208 C 42.5954,121.6492 41.3594,122.0268 40.3371,122.0862 C 39.4248,122.1392 38.7655,121.8772 38.2064,121.4616 C 38.6296,120.0618 38.6888,118.7787 38.684,117.6042 C 38.6785,116.272 38.708,115.0417 39.3085,113.6734 C 39.7135,112.7504 39.6889,111.9116 39.4555,111.2855 C 39.2848,110.8278 39.0444,110.4522 38.6873,110.2532 C 38.4819,108.9714 38.0395,107.7059 37.1778,106.6934 C 36.3137,105.6781 34.9703,105.0089 33.2469,104.7831 C 32.8545,104.7318 32.3928,104.7182 32.313,105.2143 C 32.2718,105.4698 32.3956,105.7237 32.6224,105.8485 C 34.0632,106.7131 34.6817,108.4644 34.2877,110.0143 C 33.8559,110.1054 33.5791,110.1581 33.4306,110.6243 C 33.3395,110.9101 33.3486,111.1952 33.3571,111.5427 C 33.3741,112.2377 33.4651,113.1733 33.6143,114.2245 C 33.8765,116.0716 34.1846,118.2183 34.2388,120.0657 C 34.102,119.8878 33.9461,119.6977 33.7979,119.3309 C 33.4166,118.3866 33.1041,116.9579 32.806,115.4735 C 32.508,113.9892 32.2479,112.4504 31.9244,111.2488 C 31.7626,110.648 31.5923,110.1222 31.3733,109.7058 C 31.1543,109.2894 30.8481,108.8999 30.3079,108.8609 C 30.0895,108.8297 29.8733,108.9306 29.7569,109.118 C 29.7085,109.2021 29.7277,109.2252 29.7202,109.2283 C 29.6936,109.2389 29.4622,109.1751 29.4085,109.1587 C 27.9689,107.5892 25.7352,106.4052 22.8106,106.5933 C 22.4002,106.6194 21.9464,106.6013 21.9102,107.1642 C 21.8939,107.4161 22.0338,107.6521 22.2625,107.7588 C 23.1762,108.1836 24.2062,108.7682 24.8709,109.4119 C 25.5355,110.0557 25.8388,110.6519 25.6056,111.3957 C 25.5607,111.5437 25.4632,111.615 25.4219,111.7631 C 25.1876,112.8003 25.1631,113.6829 25.6423,114.4081 C 26.0801,115.0706 26.9197,115.4808 27.9935,115.9144 C 28.5523,116.5526 29.4367,118.143 30.161,119.6248 C 30.4207,120.1562 30.6505,120.6218 30.859,121.0943 C 30.2541,120.6334 29.6972,120.2033 29.0956,119.735 C 27.936,118.8323 26.9482,117.8499 26.7444,117.3471 C 26.5271,116.811 26.3146,116.4464 26.0097,116.1715 C 25.7049,115.8966 25.2461,115.7508 24.8709,115.8409 C 24.5711,115.9129 24.3543,116.0728 24.1831,116.2831 C 23.0188,115.7187 21.6534,115.3368 20.2788,115.547 C 19.7268,115.6314 19.1739,115.7884 18.6256,116.0981 C 18.399,116.2172 18.2704,116.4647 18.3032,116.7186 C 18.3359,116.9724 18.5231,117.1792 18.7725,117.2369 C 19.6005,117.4689 20.6137,117.9646 21.3441,118.5594 C 21.7973,118.9285 22.1062,119.3153 22.2617,119.6555 C 22.0086,120.0122 21.7915,120.405 21.8585,120.9106 C 21.9071,121.2781 22.1443,121.6527 22.483,121.9025 C 22.8217,122.1523 23.2563,122.3247 23.8422,122.4536 C 24.9571,122.6986 25.6758,123.1209 26.5608,123.7394 C 27.4247,124.343 28.4595,125.1067 30.0508,126.017 C 30.4715,126.726 30.7848,127.2192 31.1896,127.5232 C 31.5244,127.7746 31.927,127.9454 32.3652,128.1477 C 32.171,129.3964 31.9487,130.4738 31.7039,131.1969 C 31.4269,132.0152 31.101,132.4795 30.859,132.6297 C 30.1657,133.0601 29.8627,133.8406 29.7202,134.54 C 29.6261,135.0018 29.5482,135.5753 29.7936,136.0095 C 29.9502,136.2864 30.2766,136.402 30.5753,136.4206 C 30.7001,136.8434 30.7772,137.278 30.6753,137.7728 C 30.5166,138.5438 29.9295,139.5614 28.1405,140.822 C 27.9234,140.9841 27.8386,141.2694 27.9318,141.5236 C 28.0251,141.7779 28.2742,141.9408 28.5446,141.9241 C 30.9649,141.6645 32.2922,141.1524 33.2102,140.3077 C 34.0543,139.5309 34.4984,138.5897 35.2188,137.4228 C 35.2988,137.4765 35.3914,137.5087 35.4879,137.5157 C 35.92,137.548 36.225,137.2991 36.443,137.0381 C 36.661,136.7771 36.8104,136.4353 36.9206,136.0829 C 37.1409,135.3782 37.1936,134.511 36.7002,133.8053 C 36.5054,133.5267 36.499,133.2211 36.6267,132.6664 C 37.0459,131.2593 37.4662,129.8024 37.6992,128.3751 C 37.823,127.6165 38.1924,127.3707 38.9779,127.1926 C 39.3376,127.111 39.8368,127.0212 40.4106,126.9722 C 41.5583,126.8742 43.03,126.8449 44.6353,126.7885 C 47.8459,126.6756 51.5095,126.5289 54.04,125.5762 C 54.1658,125.5288 54.2702,125.4375 54.3339,125.319 L 55.1421,123.9965 C 55.6262,123.7725 56.1208,123.4185 56.7953,123.0781 C 57.4198,122.7628 58.1319,122.5454 58.8341,122.4992 C 59.5334,123.9113 61.0731,125.8822 62.5997,126.3109 C 62.8148,126.3661 63.0421,126.288 63.1779,126.1123 C 63.3137,125.9366 63.3319,125.6969 63.2242,125.5027 C 62.4646,123.9878 62.2545,122.7182 62.4895,121.6453 C 62.6658,120.8407 63.1902,120.1351 63.9223,119.4778 C 64.045,122.2843 64.446,124.3906 65.2448,125.7599 C 66.1578,127.3251 67.4845,128.0715 68.8817,128.4049 C 69.083,128.4578 69.297,128.3938 69.4363,128.2391 C 69.5756,128.0844 69.6167,127.8648 69.543,127.6702 C 69.0356,126.4406 68.9072,125.5205 68.992,124.8782 C 69.0283,124.6023 69.2546,124.4958 69.3593,124.2904 C 69.9241,125.9602 70.9503,127.5138 72.7024,128.8458 C 74.8743,130.497 77.9165,131.8973 81.7764,133.0705 C 89.3459,135.3713 100.1984,136.7854 113.9212,137.2218 C 113.5741,138.7818 112.7866,140.1328 111.2394,141.2261 C 109.5018,142.4539 106.8712,143.3816 103.3042,143.9446 C 103.2776,143.9489 103.2575,143.9405 103.2308,143.9446 C 91.3147,144.5933 81.8837,149.4472 75.6781,159.3007 C 73.939,162.1125 71.7168,163.1265 68.6981,162.5335 C 68.6851,162.531 68.6742,162.5361 68.6613,162.5335 C 68.6225,162.5257 68.5902,162.5418 68.5511,162.5335 C 68.2954,162.5151 68.0602,162.6739 67.9818,162.918 C 67.9033,163.162 68.0019,163.4281 68.2205,163.5622 C 68.2545,163.576 68.2964,163.5853 68.3307,163.5989 C 68.3412,163.6031 68.3569,163.5947 68.3674,163.5989 C 72.4275,165.1931 77.8803,164.7868 84.2745,162.4233 C 81.9703,166.5995 80.0706,170.4283 77.0373,173.5913 C 76.8771,173.7464 76.8251,173.9822 76.9051,174.1904 C 76.9852,174.3985 77.1818,174.5386 77.4047,174.5464 C 79.9348,174.6694 83.0697,173.3524 85.6705,169.9911 C 83.2455,176.4185 79.3151,180.5535 74.0249,182.298 C 71.4283,182.5478 69.1595,182.0446 67.8899,181.0489 C 67.2452,180.5434 66.8614,179.9118 66.7142,179.1753 C 66.5672,178.4388 66.6562,177.5503 67.1551,176.4935 C 67.1679,176.4818 67.1802,176.4696 67.1918,176.4567 C 67.3534,176.0418 67.2991,175.621 67.1918,175.171 C 67.0846,174.721 66.8809,174.258 66.6041,173.8117 C 66.0735,172.9565 65.2633,172.1493 64.1669,171.9427 C 63.2889,171.0285 62.1546,170.5078 60.8731,170.3584 C 59.5823,170.2079 58.105,170.521 56.6116,171.0932 C 56.5094,171.1323 56.4203,171.0875 56.3177,171.1299 C 56.0534,171.2426 55.903,171.5238 55.9559,171.8062 C 56.0088,172.0886 56.2509,172.2962 56.5381,172.3055 C 57.5957,172.3841 58.5119,172.5905 59.1832,172.8933 C 59.5773,173.0711 59.8669,173.2674 60.0664,173.4962 C 60.2119,174.2156 59.5309,175.3508 58.8893,175.6853 C 58.7851,175.7397 58.669,175.7932 58.5426,175.8465 C 55.7435,176.0374 53.2546,176.8157 51.5419,179.0283 C 51.3943,179.2197 51.3768,179.4812 51.4976,179.6905 C 51.6183,179.8998 51.8535,180.0155 52.093,179.9835 C 53.0837,179.8049 54.217,179.6747 55.1421,179.7264 C 55.7589,179.7608 56.2581,179.8903 56.5968,180.0747 C 56.6018,180.1051 56.6068,180.136 56.6116,180.1672 C 56.0706,181.0968 55.964,182.1485 56.1707,183.1062 C 56.3459,183.9175 56.8605,184.5262 57.3831,185.1267 C 57.358,185.143 57.3332,185.159 57.3083,185.1752 C 56.2901,185.6265 55.2899,186.1995 54.4441,186.9268 C 53.3133,187.8991 52.4451,189.1944 52.3869,190.7475 C 52.3745,191.0056 52.5256,191.2438 52.7645,191.3427 C 53.0033,191.4415 53.2785,191.3797 53.4522,191.1883 C 54.353,190.2107 55.1489,189.6744 55.7667,189.5718 C 56.3843,189.4693 56.9097,189.6879 57.6035,190.4536 C 57.7099,190.575 57.8542,190.6445 58.0036,190.6594 C 58.5536,191.9542 59.4089,192.8954 60.5792,193.2823 C 61.8013,193.6863 63.2672,193.5525 64.9505,192.9506 C 65.9536,192.5925 66.9085,191.6239 68.0735,191.8128 C 68.7025,191.9147 68.9153,192.4833 69.0654,193.0251 C 68.3107,194.4795 68.2093,195.8572 68.6613,196.9927 C 69.1416,198.1992 70.1305,199.1542 71.2696,200.0052 C 71.3652,200.0763 71.4811,200.115 71.6003,200.1153 C 72.1249,200.1257 72.5068,200.1809 72.791,200.2816 C 73.3312,200.971 73.5614,201.4308 73.6208,201.9155 C 73.6916,202.493 73.5144,203.2756 72.9963,204.634 C 72.9136,204.8327 72.9413,205.0603 73.0692,205.2334 C 73.1971,205.4065 73.4066,205.4997 73.6208,205.4789 C 75.3137,205.2858 76.5953,204.2779 77.2945,202.8339 C 77.9768,201.4246 78.1704,199.6058 77.9712,197.5492 C 78.3336,197.3594 78.6541,197.1346 78.8742,196.8458 C 79.2638,196.3343 79.4419,195.7081 79.3885,195.0457 C 79.2882,193.8015 78.5094,192.4032 77.3312,190.8209 C 77.943,189.0017 79.0858,187.4917 81.0784,185.8614 C 83.1306,184.1823 86.0626,182.3605 90.0055,180.0203 C 93.8509,180.3963 97.126,178.5044 99.1897,174.9873 C 99.9117,175.0593 100.5859,175.0857 101.1554,174.9701 C 102.0317,174.7924 103.4221,173.6177 103.0471,172.6729 C 102.5524,171.3206 102.229,170.098 102.1654,169.2196 C 102.0791,168.0281 102.6193,167.6127 103.3625,166.8121 C 105.1281,164.9098 107.5532,163.7344 111.7537,162.5703 C 111.766,162.5707 111.7782,162.5707 111.7905,162.5703 C 115.2244,161.5849 118.3622,159.9491 121.7094,157.3169 C 120.3251,160.7778 119.0107,164.3539 120.7175,168.9992 C 121.6489,171.929 122.2095,175.1754 121.636,177.5956 C 121.5959,177.7804 121.6525,177.973 121.7862,178.1066 C 121.9199,178.2404 122.1124,178.297 122.2972,178.2569 C 123.5403,178.008 124.5745,177.3239 125.4566,176.2364 C 126.1532,175.3775 126.7248,174.0669 127.2935,172.6729 C 127.5949,173.2522 127.8213,173.887 127.8078,174.6567 C 127.7878,175.7951 127.3478,177.2237 126.3015,179.0283 C 126.1797,179.2417 126.2124,179.5097 126.3818,179.6876 C 126.5512,179.8655 126.8173,179.9111 127.0363,179.7998 C 127.1356,179.755 127.1972,179.6307 127.2935,179.5794 C 128.569,178.8993 129.5646,177.6431 130.4528,176.1261 C 130.1265,181.3233 129.4842,185.4135 128.3588,187.037 C 128.3272,187.0821 128.3024,187.1316 128.2854,187.1839 C 126.7278,192.7791 124.4119,195.319 122.334,196.6253 C 121.5187,195.8373 120.6357,195.1916 119.6154,194.9355 C 118.5653,194.6718 117.4142,194.9069 116.1989,195.56 C 115.2211,194.0612 113.9889,192.9987 112.5619,192.5475 C 111.1208,192.0919 109.5606,192.2945 108.1128,193.0768 C 107.5232,192.9532 106.9338,192.8865 106.3534,192.9149 C 105.5908,192.9522 104.8326,193.1248 104.1492,193.466 C 102.7823,194.1482 101.7021,195.5059 101.1735,197.5437 C 101.0705,197.8193 101.1779,198.1291 101.4293,198.2817 C 101.6808,198.4344 102.0052,198.3868 102.2021,198.1683 C 103.0777,197.3504 104.1565,196.8822 105.0676,196.8458 C 105.8713,196.8137 106.5343,197.0516 107.0152,197.7016 C 106.5854,197.9223 105.9392,198.596 105.8024,199.05 C 105.591,199.5698 105.6352,200.1728 105.8628,200.8409 C 103.5221,202.2313 101.408,204.9909 101.8715,208.8587 C 101.9083,209.1346 102.1265,209.351 102.4026,209.3855 C 102.6788,209.42 102.9435,209.264 103.0471,209.0057 C 103.7546,207.128 105.1785,206.0822 107.0135,205.6913 C 107.4769,205.7293 107.9726,205.8172 108.4816,205.9124 C 108.4913,205.9285 108.5015,205.9441 108.5125,205.9592 C 108.4477,206.2664 108.3678,206.5705 108.4106,206.875 C 108.4547,207.188 108.6804,207.4589 108.9072,207.7193 C 107.2172,210.2177 106.222,212.6888 106.831,215.2142 C 106.8544,215.3114 106.8393,215.4108 106.8677,215.5081 C 106.9591,215.7659 107.2103,215.9319 107.4832,215.9148 C 107.7562,215.8977 107.9847,215.7018 108.0433,215.4346 C 108.2721,213.9973 108.8707,213.2155 109.7332,212.5692 C 110.5406,211.9641 111.6287,211.5041 112.8591,210.956 C 112.8946,210.9427 112.93,210.9293 112.9661,210.916 C 115.338,211.3885 117.4926,210.4841 119.4317,209.1894 C 121.4121,207.8672 123.2645,206.2375 125.0157,205.2218 C 126.1247,205.6357 127.0904,205.8597 127.918,205.7729 C 128.7161,205.6891 129.4544,205.3709 130.3059,205.0748 C 130.6944,205.9433 131.0941,206.8909 131.9223,207.5729 C 132.8839,208.3648 134.2865,208.6907 136.2573,208.1975 C 136.3909,208.1673 136.5086,208.0887 136.5879,207.9771 C 136.687,207.8137 136.7843,207.667 136.879,207.5363 C 138.0178,207.8013 138.6017,207.9943 138.8655,208.2709 C 139.0313,208.4447 139.14,208.7044 139.2329,209.1526 C 139.3258,209.6009 139.3998,210.2332 139.4533,211.0997 C 139.4626,211.3869 139.6703,211.629 139.9526,211.6819 C 140.235,211.7348 140.5163,211.5844 140.6289,211.3201 C 141.6293,209.11 142.2554,207.5695 142.0984,206.1035 C 141.9433,204.6555 140.9679,203.5 139.2249,202.1498 C 139.4242,201.7349 139.6059,201.2912 139.49,200.8868 C 139.328,200.3209 138.9167,199.8696 138.388,199.5276 C 137.4026,198.8901 135.9272,198.6229 134.347,198.7928 C 133.7736,198.4254 133.4514,198.0392 133.3183,197.4703 C 133.1788,196.874 133.2169,196.0697 133.4285,195.1558 C 133.8518,193.3283 134.9178,191.011 135.8532,188.3963 C 135.8548,188.3718 135.8548,188.3473 135.8532,188.3228 C 136.3119,186.0287 137.7325,184.4615 139.4533,182.8857 C 141.1742,181.3099 143.1952,179.7291 144.67,177.4487 C 146.28,174.8691 146.7126,172.143 146.1027,169.5502 C 145.5125,167.0411 143.9303,164.6777 141.6943,162.6805 C 141.0362,158.6329 141.7749,154.422 143.7148,150.043 C 145.6609,146.0164 146.2463,143.0575 145.919,140.3812 C 145.713,138.6959 145.0748,137.1454 144.2658,135.5686 C 150.3593,141.1958 156.6405,146.6408 163.7364,150.9614 C 170.4149,154.9594 177.2042,154.8536 182.2151,151.3655 C 187.2261,147.8774 190.3939,141.0832 190.0768,131.895 C 190.0736,131.8045 190.0484,131.7162 190.0033,131.6378 C 188.1798,128.3479 187.3312,124.829 188.24,121.6453 C 189.3669,120.7038 190.1447,119.1775 190.6646,117.1267 C 191.2172,114.947 191.4973,112.2071 191.583,108.9711 C 191.5834,108.7225 191.4188,108.5038 191.1797,108.4355 C 190.9407,108.3673 190.6854,108.4659 190.5544,108.6772 C 189.1427,111.3081 187.8736,113.014 186.697,114.2245 C 188.4845,111.1061 189.7399,106.9328 190.3707,101.4767 C 190.3987,101.2776 190.3171,101.0789 190.1571,100.957 C 189.9971,100.8351 189.7838,100.8091 189.5993,100.889 C 188.1489,101.4563 186.4743,102.9452 184.6765,104.93 C 186.1874,101.1414 186.9874,96.8573 187.2848,92.1823 C 187.2919,91.9528 187.1572,91.7425 186.9457,91.653 C 186.7342,91.5635 186.4895,91.6133 186.3297,91.7782 C 182.5252,95.9718 179.1276,100.3126 177.623,105.3341 C 176.1267,110.328 176.5517,115.977 180.1946,122.4903 C 180.2148,122.5263 180.2109,122.5644 180.2313,122.6005 C 182.5163,129.4569 183.3109,135.4654 182.2151,139.6832 C 181.664,141.8045 180.6407,143.4563 179.1292,144.6427 C 177.6178,145.829 175.5726,146.5456 172.8839,146.6632 C 167.7913,147.1434 162.3695,143.514 156.8299,138.2872 C 151.4802,133.2396 146.0196,126.8291 140.5006,121.4776 C 140.5234,121.4427 140.5429,121.4052 140.5585,121.3653 C 140.564,121.3512 140.5688,121.3369 140.5732,121.3226 C 142.7175,120.447 144.0355,118.9063 144.6332,116.9797 C 144.6902,116.812 144.6638,116.6271 144.5623,116.482 C 144.4607,116.3369 144.296,116.2489 144.1189,116.245 C 139.3895,116.3512 135.2865,115.9107 131.5549,115.1796 C 136.2559,115.7419 141.0632,115.3816 145.5516,114.3347 C 154.8074,112.1758 162.8011,107.3214 166.1978,102.1748 C 166.3743,101.9695 166.3772,101.6669 166.2048,101.4582 C 166.0324,101.2496 165.7348,101.1953 165.4998,101.3298 C 153.0877,106.7478 140.9069,109.1097 128.9833,107.0975 C 141.3851,106.7266 151.2837,104.9463 158.5565,101.6604 C 166.7926,97.9394 171.8272,92.3294 173.9126,85.1288 C 173.9171,85.1132 173.9448,85.1077 173.9493,85.0921 C 173.9711,85.0163 174.0017,84.9478 174.0228,84.8717 C 174.0672,84.6284 173.9457,84.385 173.7245,84.2744 C 173.5032,84.1637 173.2356,84.2125 173.0676,84.3941 C 167.0229,92.1735 157.1825,96.7882 144.7434,99.2358 C 154.3686,95.8864 163.4633,90.1567 170.5695,83.6594 C 175.4544,79.1931 179.429,74.4074 181.958,69.8095 C 184.4869,65.2117 185.5952,60.7962 184.7132,57.0986 C 184.6623,56.8736 184.4779,56.7034 184.2495,56.6708 C 184.0212,56.6382 183.7964,56.7499 183.6846,56.9516 C 176.4211,69.7816 166.7948,79.9286 153.9277,86.5616 C 161.8565,81.112 168.5448,73.9512 173.0676,67.091 C 176.1215,62.459 178.1846,57.9788 178.9455,54.1963 C 179.326,52.3051 179.3949,50.6062 179.0558,49.1266 C 178.7166,47.6471 177.9716,46.4011 176.7781,45.5631 C 176.631,45.4473 176.4356,45.4131 176.2579,45.4723 C 176.0803,45.5315 175.9444,45.6761 175.8964,45.857 C 171.9367,59.5079 164.7105,70.1737 154.6257,78.4427 C 161.3318,71.0718 166.0242,63.6226 168.3653,57.2087 C 169.8347,53.1831 170.4212,49.5644 170.0184,46.6285 C 169.6157,43.6926 168.1699,41.3953 165.6835,40.273 C 165.5174,40.2028 165.3277,40.2175 165.1743,40.3124 C 165.021,40.4073 164.9232,40.5707 164.912,40.7506 C 164.0869,52.2906 160.0929,62.9175 152.2378,72.4913 C 156.6527,65.887 159.8154,58.8787 161.3485,52.8371 C 162.3728,48.8006 162.6659,45.181 162.0833,42.367 C 161.5007,39.5531 159.9499,37.4916 157.3809,36.8932 C 157.218,36.8501 157.0444,36.8831 156.9087,36.9831 C 156.773,37.0831 156.69,37.2392 156.683,37.4075 C 156.3737,46.0649 154.5289,54.0138 151.7602,61.2131 C 152.2945,57.2618 151.7676,53.7142 149.8499,51.1471 C 149.7159,50.9286 149.4498,50.83 149.2057,50.9085 C 148.9616,50.9869 148.8028,51.2221 148.8213,51.4778 C 148.4728,59.7294 146.3009,66.3213 142.5025,71.4994 C 145.585,64.6971 147.3484,59.1537 147.1681,55.3352 C 147.0605,53.0572 146.37,51.2162 145.1476,49.8981 C 143.9251,48.58 142.1996,47.8146 140.0779,47.4735 C 139.8636,47.4426 139.6509,47.5387 139.5327,47.7201 C 139.4144,47.9014 139.4121,48.1348 139.5268,48.3184 C 141.42,51.1995 141.7822,55.2669 140.482,60.6253 C 139.6175,64.1879 137.7481,68.5027 135.4123,73.1526 C 137.6544,66.7918 139.1083,61.2905 139.0492,57.4659 C 139.0079,54.7934 138.4432,52.6864 137.3226,51.1104 C 136.2021,49.5344 134.5484,48.5153 132.5101,48.0613 C 132.3275,48.0104 132.1315,48.0562 131.9902,48.1825 C 131.8489,48.309 131.7818,48.4987 131.8121,48.6858 C 133.2696,61.1632 130.8861,70.7125 125.0525,77.708 C 119.2863,84.6226 110.0787,89.0445 97.6835,91.2271 C 96.8994,90.1531 96.6998,88.4645 96.7651,86.4881 C 97.139,87.1847 97.7868,88.0876 98.4182,88.5821 C 98.6136,88.7159 98.8724,88.7113 99.0629,88.5705 C 99.2534,88.4297 99.3338,88.1837 99.2632,87.9576 C 98.5718,86.1647 98.6448,84.7898 99.3734,83.6226 C 101.6808,80.513 103.3936,76.2651 104.9574,71.7198 C 104.9806,71.7222 104.9695,71.7009 105.0309,71.7198 C 105.1842,71.7671 105.4664,71.9204 105.7656,72.1607 C 106.3449,72.6258 107.0766,73.4577 107.8963,74.4751 C 107.9234,74.5087 107.9426,74.5146 107.9698,74.5486 C 108.1537,74.7394 108.4467,74.7738 108.6699,74.631 C 108.893,74.4882 108.9845,74.2077 108.8882,73.9608 C 108.8735,73.9321 108.8662,73.8797 108.8515,73.8506 C 107.4222,71.0056 106.6709,66.3069 106.3166,61.4335 C 105.9725,56.699 105.9916,51.8769 105.9861,48.2353 C 106.0376,48.1978 106.0831,48.1526 106.1209,48.1014 C 108.7244,47.4374 110.7985,45.4429 112.415,42.5875 C 112.5368,42.3741 112.5042,42.1061 112.3348,41.9282 C 112.1654,41.7504 111.8993,41.7047 111.6803,41.816 C 109.9361,42.6334 108.3734,43.1361 107.0881,43.212 C 106.1138,43.2695 105.3791,43.016 104.737,42.5507 C 107.422,41.5715 109.5282,39.7233 110.3945,37.3708 C 110.4975,37.146 110.4396,36.8801 110.2524,36.7184 C 110.0652,36.5568 109.7937,36.5382 109.5863,36.6728 C 107.1997,38.0054 105.2114,38.2669 103.4879,37.5912 C 100.4569,36.0255 97.9318,35.2802 95.9568,35.4972 L 95.9568,35.4972 z "
   style="fill:#0a0b0c" />
   <path
   id="path64_2"
   class="fil3"
   d="M 92.3102,39.233 C 94.8231,41.6828 98.8825,43.4184 103.6367,43.2319 C 104.5716,44.0972 105.7879,44.4298 107.1249,44.3509 C 108.114,44.2924 109.2765,43.7694 110.3945,43.3589 C 109.2182,45.0056 107.9311,46.2833 106.4065,46.8805 C 105.4404,47.259 104.1176,47.133 103.0915,47.0953 C 100.0808,46.9846 97.6252,46.5048 96.0671,45.5999 C 95.6924,45.3662 95.1779,45.5963 95.1201,46.0448 C 95.0873,46.2987 95.2159,46.5462 95.4425,46.6653 C 97.6637,47.9553 100.9463,48.4095 104.8847,48.3682 C 104.8882,51.9881 104.8729,56.8436 105.2145,61.5437 C 105.5009,65.4827 106.1263,69.0681 107.1249,72.0505 C 106.8989,71.8286 106.6402,71.4502 106.4269,71.279 C 106.0645,70.9881 105.7336,70.7691 105.3615,70.6545 C 104.9893,70.5398 104.5244,70.5879 104.1859,70.8382 C 104.1011,70.9043 104.0373,70.9936 104.0023,71.0953 C 102.4196,75.7261 100.6874,80.0043 98.455,82.9981 C 98.4422,83.0097 98.4299,83.022 98.4182,83.0348 C 97.8451,83.953 97.7092,85.0195 97.7937,86.1575 C 97.4171,85.4957 97.0932,84.6942 96.8385,83.7328 C 96.7533,83.5006 96.525,83.3527 96.2783,83.3697 C 96.0315,83.3867 95.8257,83.5646 95.7731,83.8063 C 95.761,83.8863 95.7847,83.9472 95.7731,84.0267 C 95.3553,86.9001 94.9548,89.3341 96.5079,92.0353 C 97.0796,93.0297 97.6116,93.8917 98.1243,94.8274 C 97.5173,94.7076 96.8089,94.4142 95.9936,93.8355 C 94.726,92.9357 93.3598,91.5617 92.2831,90.0516 C 92.1249,89.841 91.8497,89.7552 91.5998,89.8385 C 91.35,89.9218 91.1813,90.1555 91.181,90.4189 C 91.2518,93.016 91.8973,94.9239 92.9444,96.3703 C 92.3147,96.3046 91.7317,96.11 91.2178,95.7458 C 90.4422,95.1962 89.7785,94.3084 89.1605,93.1742 C 88.9982,92.8699 88.6199,92.7548 88.3156,92.9171 C 88.0112,93.0794 87.8961,93.4577 88.0584,93.762 C 88.7297,94.9941 89.5209,96.0665 90.5198,96.7744 C 91.5187,97.4824 92.7384,97.8211 94.12,97.6194 C 94.3768,97.6043 94.5968,97.4304 94.6707,97.1839 C 94.7447,96.9375 94.6567,96.6712 94.4506,96.5173 C 93.4896,95.6834 92.9669,94.1417 92.6873,92.1823 C 93.535,93.1376 94.3773,94.1756 95.2956,94.8274 C 96.7083,95.8302 98.1288,96.4687 99.4101,96.0397 C 99.7401,95.9253 99.9083,95.5552 99.7775,95.2315 C 99.3185,94.0872 98.6831,93.1887 98.1112,92.326 C 110.5674,90.1006 119.9791,85.5471 125.9342,78.406 C 131.8376,71.3268 134.2004,61.6783 132.951,49.4573 C 134.3969,49.9143 135.5919,50.5925 136.4042,51.735 C 137.3567,53.0746 137.9082,54.982 137.9471,57.5027 C 138.0248,62.5298 136.0432,70.0497 131.5917,80.3897 C 131.579,80.4193 131.5677,80.4337 131.5549,80.4633 C 131.4129,80.7372 131.5198,81.0743 131.7937,81.2163 C 132.0676,81.3584 132.4048,81.2515 132.5468,80.9776 C 132.5624,80.9514 132.5681,80.9302 132.5836,80.9041 C 137.2234,73.0755 140.2466,66.3942 141.5841,60.8824 C 142.7723,55.9857 142.5485,52.0065 141.033,48.9062 C 142.3873,49.2833 143.5475,49.8158 144.3394,50.6696 C 145.3567,51.7666 145.9673,53.2826 146.066,55.3719 C 146.2633,59.5506 144.3722,65.9234 139.9309,74.7323 C 139.8365,74.9706 139.9172,75.2426 140.1265,75.3908 C 140.3356,75.539 140.6191,75.525 140.8126,75.3568 C 140.8489,75.3201 140.8867,75.2835 140.9228,75.2466 C 140.9415,75.2275 140.9409,75.1923 140.9595,75.1731 C 146.0812,69.9022 148.9475,62.6869 149.7029,53.7187 C 150.6325,55.8486 151.1062,58.3604 150.6581,61.36 C 150.2428,64.1394 149.0457,67.2088 147.4987,70.3238 C 144.8986,74.9225 141.88,79.0352 138.535,82.5573 C 136.9316,84.1717 135.2658,85.7463 133.502,87.1861 C 130.0153,89.9042 125.9969,92.2401 121.5973,94.1222 C 115.4543,96.7498 108.5228,97.1641 101.9817,98.1337 C 96.5858,98.7435 89.6071,99.5311 85.1562,102.5788 C 84.1933,103.2548 83.2876,104.0412 82.4744,105.0035 C 82.3399,105.2384 82.3941,105.5361 82.6028,105.7084 C 82.8115,105.8809 83.114,105.8779 83.3193,105.7015 C 84.3511,104.4807 85.591,103.6572 86.8828,102.9095 C 91.431,100.3569 97.0805,99.9815 102.1287,99.2358 C 109.0824,98.4524 115.513,97.8187 122.0977,95.2455 C 126.3082,93.6 130.3898,91.1693 134.2367,88.031 C 136.0553,86.6099 137.8317,84.9642 139.4166,83.292 C 143.2429,79.4224 146.0467,75.7244 148.4539,70.9116 C 153.6492,61.7139 157.0968,50.6476 157.6748,38.2893 C 159.4032,38.9396 160.5472,40.3139 161.0179,42.5875 C 161.5458,45.1371 161.2444,48.6106 160.2464,52.5432 C 158.2506,60.4083 153.3625,70.0977 146.5068,78.2223 C 146.2938,78.4556 146.3102,78.8174 146.5436,79.0305 C 146.7769,79.2435 147.1387,79.2271 147.3518,78.9938 L 147.3518,78.957 L 153.0093,73.2628 C 153.0221,73.2511 153.0343,73.2389 153.046,73.2261 C 160.8328,63.7516 164.8682,53.194 165.8672,41.816 C 167.5304,42.8504 168.5957,44.4381 168.9163,46.7755 C 169.2824,49.444 168.7644,52.8928 167.3367,56.8047 C 164.4889,64.6069 158.0823,74.2157 148.4906,83.1818 C 148.4644,83.2063 148.4435,83.2307 148.4171,83.2552 C 148.1737,83.448 148.1326,83.8016 148.3253,84.0451 C 148.518,84.2885 148.8717,84.3297 149.1151,84.137 C 149.1446,84.1179 149.1592,84.0825 149.1886,84.0634 C 162.5796,75.397 171.7956,63.1018 176.6678,47.0326 C 177.2723,47.6512 177.7312,48.3767 177.9536,49.3471 C 178.2444,50.6152 178.2388,52.193 177.8802,53.9759 C 177.1628,57.5418 175.1474,61.9555 172.1492,66.5032 C 166.1527,75.5986 156.1742,85.278 144.7067,90.5659 C 144.4564,90.6981 144.3454,90.9974 144.4489,91.2609 C 144.5524,91.5244 144.8374,91.668 145.1108,91.5945 C 145.137,91.5855 145.1581,91.5669 145.1843,91.5578 L 145.1843,91.5945 C 145.2488,91.5648 145.3036,91.5143 145.368,91.4843 C 162.6025,85.4581 174.8958,73.9523 183.7948,58.8252 C 184.0413,61.8539 183.0715,65.4305 180.9661,69.2585 C 178.5154,73.714 174.6467,78.4516 169.8348,82.8512 C 160.2109,91.6503 146.8358,99.1452 133.6489,100.8522 C 133.3663,100.9064 133.1718,101.1673 133.2004,101.4536 C 133.2291,101.74 133.4714,101.9572 133.7592,101.9543 C 133.7718,101.9532 133.7832,101.9555 133.7959,101.9543 C 133.8192,101.9513 133.846,101.9574 133.8694,101.9543 C 150.301,100.446 163.5487,96.1067 171.8186,87.4065 C 169.442,93.0205 165.0366,97.5251 158.079,100.6685 C 149.963,104.3353 138.5402,106.2221 123.5096,106.1424 C 123.2088,106.1085 122.9362,106.3214 122.8962,106.6214 C 122.8562,106.9214 123.0635,107.1983 123.3626,107.2444 C 136.6059,111.0828 150.1574,108.7647 163.8467,103.1299 C 160.1758,107.3284 153.3127,111.3991 145.2945,113.2693 C 136.2648,115.3755 126.0691,114.7568 118.0357,108.8976 C 117.8024,108.6947 117.4488,108.7194 117.2459,108.9527 C 117.043,109.186 117.0677,109.5397 117.301,109.7426 C 117.3248,109.7663 117.3505,109.7924 117.3745,109.816 C 117.4063,109.8393 117.4528,109.8297 117.4847,109.8528 C 122.9373,115.1798 131.731,117.4727 143.2005,117.3471 C 141.5411,121.335 135.4276,121.4632 131.6113,121.2392 C 124.5856,120.8267 117.7383,117.7138 111.1659,110.9549 C 110.9532,110.7288 110.6011,110.7039 110.35,110.8747 C 110.0585,111.0731 110.1373,111.4644 110.2843,111.7998 C 112.4593,116.7602 117.5925,120.5677 124.6117,123.6291 C 120.3604,124.4819 116.7382,124.0024 113.6273,122.3433 C 110.097,120.4606 107.1667,117.1292 104.6635,112.6448 C 104.6492,112.6193 104.641,112.5969 104.6268,112.5713 C 104.4949,112.2568 104.133,112.1088 103.8186,112.2407 C 103.5041,112.3726 103.3561,112.7344 103.4879,113.0489 C 103.5018,113.0905 103.5473,113.1176 103.5614,113.1591 C 105.3233,118.3476 109.0154,122.5867 113.7375,126.2742 C 105.4754,126.3095 99.3109,122.3215 94.5609,115.0327 C 94.4493,114.8345 94.2371,114.7144 94.0099,114.7208 C 93.7825,114.7272 93.5775,114.859 93.4773,115.0632 C 93.3771,115.2673 93.3982,115.5102 93.5322,115.6939 C 98.7963,123.7717 105.987,128.3541 115.6479,127.5967 C 115.8983,127.5684 116.1059,127.3895 116.1708,127.1459 C 116.2358,126.9024 116.1449,126.6439 115.9417,126.4946 C 113.8637,124.9957 112.0624,123.3739 110.4312,121.6821 C 111.2698,122.3437 112.1561,122.9547 113.0763,123.4455 C 116.9101,125.4901 121.4324,125.9363 126.7424,124.4373 C 126.9829,124.3609 127.152,124.1449 127.1682,123.893 C 127.1845,123.6412 127.0446,123.4052 126.8159,123.2985 C 120.5779,120.8066 115.9069,117.7829 113.1497,114.1877 C 121.4921,121.3911 130.4067,123.608 139.401,121.8767 C 144.9727,127.2312 150.5265,133.8759 156.0584,139.0954 C 161.6703,144.3903 167.281,148.3005 172.9574,147.7653 C 175.8198,147.6402 178.1029,146.8778 179.8272,145.5243 C 181.5516,144.1709 182.6819,142.2445 183.2805,139.9403 C 184.4777,135.3319 183.6138,129.1414 181.26,122.1229 C 181.2496,122.0976 181.2373,122.073 181.2232,122.0494 C 177.639,115.6938 177.2647,110.4158 178.6884,105.6648 C 179.9362,101.5004 182.7156,97.759 185.8888,94.0926 C 185.3368,99.7085 184.1362,104.7751 181.5539,108.7139 C 181.4001,108.9669 181.4715,109.2961 181.7163,109.4625 C 181.9612,109.6291 182.2935,109.5745 182.4723,109.3385 C 185.1263,105.6039 187.1995,103.7291 188.938,102.6891 C 188.0136,109.0932 186.2773,113.7088 183.7581,116.4287 C 183.5899,116.6222 183.5758,116.9056 183.724,117.1148 C 183.8722,117.324 184.1443,117.4048 184.3826,117.3104 C 184.4506,117.2812 184.5348,117.1951 184.603,117.1634 C 184.6163,117.1573 184.6265,117.133 184.6398,117.1267 C 186.3878,116.3034 188.2246,114.2992 190.2238,111.1018 C 190.0802,113.2114 189.9771,115.379 189.5993,116.8695 C 189.0792,118.9208 188.3078,120.3144 187.395,120.9841 C 187.2904,121.0542 187.2126,121.1578 187.1746,121.2779 C 186.1402,124.795 187.1233,128.5095 188.9747,131.9317 C 188.9803,131.942 188.9691,131.958 188.9747,131.9684 C 189.272,140.8631 186.2181,147.226 181.5906,150.4471 C 176.9563,153.6729 170.6773,153.8314 164.2875,150.0062 C 156.3764,145.1893 149.4311,139.0035 142.6127,132.5929 C 142.42,132.3495 142.0663,132.3084 141.8229,132.5011 C 141.5794,132.6938 141.5383,133.0475 141.731,133.2909 C 143.3648,135.9517 144.5221,138.1169 144.8169,140.5281 C 145.1118,142.9394 144.5791,145.6855 142.6862,149.6021 C 140.6638,154.1672 139.8602,158.6398 140.5922,162.9744 C 140.6129,163.1027 140.6779,163.2196 140.7758,163.305 C 142.9936,165.2217 144.4553,167.4892 145.0006,169.8074 C 145.5459,172.1256 145.1841,174.5068 143.7148,176.8609 C 142.3684,178.9428 140.4505,180.4579 138.6819,182.0775 C 136.9407,183.6719 135.3757,185.4294 134.8245,187.9922 L 134.7878,187.9922 C 133.8703,190.557 132.8282,192.9278 132.3631,194.9355 C 132.1306,195.9393 132.0536,196.8384 132.2529,197.6907 C 132.4523,198.543 132.9811,199.3099 133.8326,199.8215 C 133.9429,199.8877 134.0727,199.9137 134.2,199.8949 C 135.6774,199.6718 137.0172,199.9999 137.7635,200.4827 C 138.1366,200.7241 138.3615,200.9968 138.4247,201.2174 C 138.5478,201.6472 138.1755,202.1218 137.795,202.2767 C 136.8329,202.6686 136.2227,203.1414 135.8899,203.789 C 135.4716,204.6032 135.5166,205.4654 135.4123,206.6545 C 135.3902,206.8679 135.4807,207.0692 135.6386,207.1958 C 134.1303,207.5019 133.2603,207.2183 132.6203,206.6913 C 131.9285,206.1216 131.4631,205.1963 131.0406,204.2299 C 130.936,203.9679 130.6517,203.8257 130.3794,203.8992 C 129.2967,204.2662 128.5405,204.5571 127.8078,204.634 C 127.0751,204.7109 126.2995,204.6268 125.0893,204.1197 C 124.9327,204.0592 124.7572,204.0727 124.6117,204.1564 C 122.6399,205.2623 120.7372,206.9825 118.8072,208.2709 C 117.0258,209.4603 115.2701,210.257 113.3706,209.9505 C 113.0187,209.1463 112.6292,208.5352 112.0476,208.0872 C 111.446,207.6239 110.6879,207.3797 109.7332,207.1688 C 109.7041,207.1582 109.6743,207.1497 109.644,207.1436 C 109.5445,207.015 109.4979,206.8834 109.476,206.728 C 109.4449,206.5069 109.4978,206.2109 109.6141,205.8368 C 111.5818,203.6677 113.8042,203.3335 116.4306,203.9956 C 116.6527,204.0874 116.9081,204.0408 117.0834,203.8764 C 117.2588,203.7119 117.3218,203.4602 117.2444,203.2325 C 117.1671,203.0049 116.9637,202.8436 116.7244,202.8201 C 115.2412,202.4461 113.772,202.3895 112.3895,202.7466 C 111.1514,203.0663 109.9783,203.7104 108.9304,204.7794 C 108.7995,204.7531 108.6685,204.728 108.5374,204.7044 C 108.6748,203.8108 108.7352,203.0832 108.5943,202.3931 C 108.4364,201.619 107.9722,200.9785 107.1984,200.4827 C 107.0786,200.3939 106.9312,200.3521 106.7841,200.364 C 106.6929,199.9866 106.7326,199.6961 106.831,199.4541 C 106.9432,199.178 107.166,198.9253 107.457,198.7115 C 107.5427,198.7283 107.6334,198.7275 107.7239,198.7055 C 108.8294,198.5735 109.7122,198.6553 110.369,198.926 C 111.0257,199.1966 111.4727,199.6374 111.7649,200.3954 C 111.8609,200.6152 112.0763,200.7588 112.316,200.7628 C 114.5316,200.8547 116.008,200.102 116.9449,198.9627 C 117.168,198.6989 117.1352,198.3042 116.8714,198.081 C 116.6076,197.8578 116.2129,197.8907 115.9897,198.1545 C 115.2984,198.9953 114.3324,199.5215 112.6099,199.5137 C 112.1884,198.7417 111.6239,198.1074 110.8465,197.7871 C 110.3395,197.5781 109.7839,197.4659 109.1848,197.4305 C 109.4233,197.1737 109.5866,196.8716 109.6597,196.5151 C 109.8206,195.7311 109.5859,194.8984 109.1356,193.7389 C 110.167,193.3238 111.2079,193.3009 112.1946,193.6129 C 113.4486,194.0094 114.6472,194.9435 115.5376,196.4784 C 115.6084,196.6123 115.7308,196.7114 115.8764,196.7531 C 116.022,196.7947 116.1783,196.7751 116.3091,196.6988 C 117.5145,195.9266 118.4754,195.7792 119.3583,196.0008 C 120.2411,196.2225 121.0837,196.866 121.9299,197.7642 C 122.1157,197.951 122.4072,197.9817 122.6278,197.8377 C 125.0113,196.4482 127.5974,193.5454 129.2773,187.6615 C 129.2909,187.6418 129.3004,187.6081 129.314,187.5881 C 129.3256,187.5469 129.3392,187.5193 129.3507,187.4778 C 130.9326,185.0442 131.5139,180.3229 131.7386,173.8485 C 131.7416,173.7624 131.7725,173.7147 131.7754,173.628 C 131.7933,173.3579 131.6142,173.1142 131.351,173.0506 C 131.0879,172.9871 130.8172,173.1223 130.71,173.3709 C 129.9933,174.9057 129.2158,176.1536 128.3955,177.1548 C 128.7119,176.2598 128.8966,175.4503 128.9099,174.6934 C 128.9343,173.2978 128.4629,172.1106 127.6976,171.1666 C 127.5679,171.0116 127.3644,170.939 127.1659,170.9772 C 126.9674,171.0154 126.8052,171.1582 126.7424,171.3503 C 126.0614,173.2476 125.3676,174.6063 124.6117,175.5383 C 124.0505,176.2302 123.4064,176.4838 122.7381,176.7507 C 123.0491,174.1891 122.5901,171.3233 121.7462,168.6685 C 121.7466,168.6563 121.7466,168.6441 121.7462,168.6318 C 120.5625,165.4104 120.9047,162.7791 121.7248,160.2364 C 122.6392,157.4016 124.1578,154.9332 124.8328,151.9388 C 125.6877,148.1457 125.35,144.8127 124.1341,142.1813 C 122.6778,139.0298 119.95,136.9183 116.641,136.2833 C 114.5697,135.8858 112.3616,136.0878 110.2635,135.9897 C 98.3152,135.4305 88.8505,134.0548 82.107,132.0051 C 78.3287,130.8567 75.3789,129.4961 73.3636,127.9641 C 71.3484,126.432 70.2511,124.7871 69.9839,122.9679 C 69.9559,122.774 69.8281,122.6091 69.6473,122.5338 C 69.4665,122.4585 69.2594,122.4838 69.1021,122.6005 C 68.4789,123.1034 68.0106,123.8155 67.8899,124.7312 C 67.809,125.3443 68.0785,126.1813 68.2939,126.9722 C 67.4926,126.6355 66.7627,126.1368 66.1999,125.1721 C 65.4378,123.8655 64.9302,121.7645 64.9141,118.3757 C 64.915,118.1744 64.807,117.9883 64.6317,117.8892 C 64.4564,117.7901 64.2413,117.7935 64.0692,117.8982 C 62.6466,118.8318 61.7294,120.0313 61.4241,121.4249 C 61.2456,122.24 61.311,123.1213 61.5343,124.0332 C 60.2653,122.8104 59.4684,121.3441 59.1832,119.4044 C 58.8326,117.0703 59.1503,114.3441 59.8812,111.6162 C 59.9325,111.4264 59.8896,111.2236 59.766,111.0709 C 59.6423,110.9181 59.4529,110.834 59.2567,110.8447 C 59.0793,110.8622 58.9184,110.9561 58.8158,111.1018 C 57.1691,113.3863 55.0911,114.468 52.5891,114.4815 C 50.9118,114.3172 49.8321,113.9832 49.0805,113.6367 C 50.9552,112.9703 52.4217,111.8646 53.1951,109.816 C 54.1363,107.3226 54.3077,103.7158 53.9298,98.4276 C 53.9363,98.3788 53.9363,98.3294 53.9298,98.2806 C 53.8561,98.0534 53.8549,97.6961 54.04,97.2153 C 54.2252,96.7344 54.5634,96.1737 55.0319,95.5254 C 55.9689,94.2286 57.4205,92.6856 59.073,91.0435 C 59.2962,90.8304 59.3044,90.4768 59.0913,90.2536 C 58.8783,90.0304 58.5247,90.0222 58.3015,90.2353 C 58.2892,90.2349 58.277,90.2349 58.2648,90.2353 C 56.7157,91.7574 55.0684,92.5743 53.342,93.064 C 53.8901,92.5458 54.4323,92.0299 54.9863,91.2652 C 55.002,91.2533 55.0171,91.2407 55.0319,91.2271 C 57.7924,88.601 59.7791,85.4683 61.2772,82.0429 C 61.2978,82.0018 61.3136,81.9588 61.3243,81.9153 C 62.1899,80.9514 64.2614,79.7094 67.1551,78.4794 C 67.1786,78.4695 67.2049,78.4894 67.2286,78.4794 C 67.2463,78.4719 67.2475,78.4502 67.2653,78.4427 C 67.4952,78.3074 67.5965,78.0278 67.5068,77.7765 C 67.4171,77.5253 67.1616,77.3732 66.8979,77.4141 C 66.8732,77.422 66.8492,77.4063 66.8245,77.4141 C 66.7951,77.4264 66.7802,77.4385 66.751,77.4508 C 64.8859,78.0332 63.2117,78.2716 61.6446,78.3692 C 66.9506,75.8994 70.7215,72.617 76.2291,68.7441 C 76.4477,68.6102 76.5463,68.3441 76.4678,68.1 C 76.3894,67.8559 76.1542,67.6971 75.8985,67.7155 L 73.5473,67.7522 C 78.0502,65.8021 81.1122,63.2595 82.8925,59.9261 C 84.5324,60.3569 86.0477,60.2425 87.0298,59.266 C 89.4974,56.8127 86.7536,50.6688 85.4285,48.209 C 86.2003,47.8027 87.3395,47.565 88.7564,47.5102 C 90.4754,47.4438 92.5682,47.6206 94.818,47.9143 C 94.8316,47.9161 94.8411,47.9126 94.8547,47.9143 C 95.1895,47.9752 95.5102,47.7531 95.5711,47.4184 C 95.632,47.0836 95.4099,46.7629 95.0752,46.702 C 95.0501,46.6966 95.0267,46.7075 95.0017,46.702 C 93.1082,46.2881 91.4047,45.716 90.3153,45.0912 C 89.6815,44.7277 89.1536,44.1885 88.5873,43.7268 C 85.9358,41.5656 83.5576,40.3077 80.4902,40.1409 C 80.107,39.5229 79.7242,38.8949 79.3461,38.2557 C 79.5368,38.047 79.4005,37.6595 79.4252,37.628 C 79.4315,37.6199 79.5156,37.543 79.7559,37.4811 C 80.2364,37.3572 81.1816,37.3363 82.4009,37.4443 C 84.7667,37.6538 88.2456,38.3224 92.3102,39.233 L 92.3102,39.233 z M 101.4394,41.9574 C 98.1891,41.6447 95.4212,40.3583 93.5458,38.7117 C 94.8988,36.7837 95.3377,36.2332 97.9774,36.7096 C 99.3715,36.9612 101.0654,37.5895 103.0471,38.6199 C 103.0593,38.6203 103.0716,38.6203 103.0838,38.6199 C 104.7011,39.2539 106.5299,38.9824 108.4474,38.2525 C 107.3827,39.9182 105.8286,41.3608 103.5614,41.9262 C 102.8563,42.0779 102.1747,42.028 101.4394,41.9574 L 101.4394,41.9574 z M 81.1917,50.7912 C 82.0357,51.8112 82.5938,52.938 82.8417,53.9759 C 81.1657,54.2311 79.1676,53.9266 76.8372,52.9248 C 76.8313,52.9075 76.8245,52.8905 76.8169,52.8738 C 76.642,52.5174 76.2765,52.3476 75.9352,52.286 C 75.594,52.2245 75.1818,52.2358 74.6861,52.286 C 72.9008,52.4669 71.2431,53.1892 69.4936,53.314 C 67.4726,53.4586 65.9636,53.0663 64.4733,52.4697 C 67.3489,53.2024 69.1416,53.5812 72.0411,52.0656 C 73.771,51.5323 75.3403,51.5888 76.9271,51.588 C 78.3142,51.5873 79.7371,51.435 81.1917,50.7912 z M 23.1216,66.6021 C 23.4306,66.6786 23.7027,66.7188 23.9892,66.6869 C 24.3459,66.6472 24.7037,66.4503 24.9076,66.1726 C 25.3154,65.6171 25.3846,64.9844 25.6423,64.0051 C 25.6735,63.8991 25.6753,63.7875 25.6486,63.6819 C 25.8167,63.6645 26.2046,64.44 26.2669,64.5561 C 26.6017,65.1805 26.9999,66.0202 27.4792,66.9073 C 28.4377,68.6816 29.6507,70.6833 31.557,71.279 C 31.7517,71.3527 31.9712,71.3116 32.1259,71.1723 C 32.2806,71.0331 32.3446,70.8191 32.2918,70.6177 C 31.9949,69.2576 31.2135,67.4465 30.6386,65.6582 C 30.137,64.0978 29.8455,62.5815 29.9854,61.5223 C 30.7724,61.5721 31.4618,61.5698 32.1081,61.2866 C 32.6657,61.0421 33.0877,60.5814 33.4107,59.9009 C 33.5996,60.1341 33.7219,60.3462 33.7612,60.5151 C 33.8344,60.8293 33.7996,61.0954 33.651,61.4335 C 33.5024,61.7716 33.242,62.1403 33.0265,62.5356 C 32.811,62.9309 32.5934,63.3901 32.6591,63.9316 C 33.0274,66.9661 33.3595,68.6866 33.7612,69.7728 C 33.9621,70.3159 34.1907,70.7366 34.496,71.0219 C 34.8013,71.307 35.155,71.428 35.4879,71.4994 C 35.657,71.5442 35.8372,71.5066 35.9745,71.3983 C 36.1118,71.2899 36.1901,71.1232 36.1858,70.9484 C 36.1821,70.383 36.5421,69.329 36.9206,68.2298 C 37.299,67.1308 37.7081,65.9608 37.3982,64.8868 C 37.0192,63.574 37.3719,62.7364 37.6921,62.2417 C 37.7231,62.2387 37.754,62.2354 37.7848,62.2322 C 38.0353,62.5072 38.2058,62.7164 38.3901,62.903 C 38.5962,63.1117 38.8219,63.318 39.1248,63.4173 C 39.7307,63.6159 40.2334,63.4096 41.2923,63.1969 C 41.3382,63.19 41.3825,63.1779 41.4244,63.1615 C 41.4476,63.2785 41.4395,63.4481 41.3658,63.7112 C 41.2469,64.1355 40.9452,64.7042 40.5943,65.3643 C 39.8925,66.6847 38.8924,68.3678 38.1697,70.2504 C 38.1508,70.2974 38.1384,70.3469 38.1329,70.3973 C 37.8634,73.7662 39.2907,76.2259 41.9168,78.0386 C 44.4471,79.7852 48.0727,81.0325 52.5704,82.3354 C 52.6789,82.9248 52.9512,83.4939 53.3788,83.99 C 53.7349,84.4031 54.4433,84.6632 54.9952,84.9819 C 52.2196,85.6878 49.564,86.7009 47.284,88.5058 C 46.8007,88.5788 46.4068,88.4786 46.0681,88.2515 C 45.6097,87.944 45.215,87.3114 45.0027,86.3412 C 44.9856,86.2888 44.9609,86.2393 44.9292,86.1942 C 43.3793,83.3639 40.3897,79.7998 36.5165,79.2509 C 36.298,79.2197 36.0818,79.3206 35.9654,79.5081 C 34.6087,81.6217 33.7301,83.9336 32.953,85.2758 C 32.5645,85.9469 32.2005,86.3239 32.0346,86.3779 C 31.8678,86.4321 31.7006,86.3063 31.573,86.2089 C 31.7194,85.3199 31.7402,84.6361 31.3366,84.0267 C 31.0985,83.6673 30.7329,83.4116 30.3079,83.2552 C 29.8538,83.0882 29.1503,82.9154 28.6703,82.9177 C 28.6746,82.7809 28.7059,82.647 28.765,82.5205 C 28.931,82.1653 29.3776,81.7761 30.3814,81.6021 C 30.8983,81.5125 31.258,81.175 31.5203,80.7939 C 31.7826,80.4127 31.972,79.9448 32.1448,79.5081 C 32.4905,78.6345 32.8469,77.7801 33.0632,77.5978 C 33.2075,77.4825 33.2851,77.3031 33.2703,77.119 C 33.2556,76.9349 33.1505,76.7702 32.9897,76.6793 C 32.2599,76.2259 31.9642,76.0837 31.8142,75.8344 C 31.6641,75.5851 31.5551,75.0489 31.4468,73.8138 C 31.4268,73.5385 31.2078,73.3195 30.9325,73.2995 C 30.8117,73.2908 30.4553,73.0991 30.0141,72.7117 C 29.5728,72.3244 29.053,71.7974 28.5078,71.2423 C 27.4175,70.1319 26.2227,68.8684 24.7607,68.7074 C 23.9566,68.6189 23.6364,68.3006 23.4014,67.789 C 23.2502,67.4598 23.1699,67.0384 23.1216,66.6021 L 23.1216,66.6021 z M 59.7226,82.4799 C 58.4142,85.2491 56.771,87.7367 54.6015,89.9044 C 51.8049,89.5662 49.2161,90.0215 46.8763,91.2271 C 47.8512,88.1369 53.9631,86.3433 56.6116,85.7901 C 56.8787,85.7315 57.0747,85.503 57.0918,85.23 C 57.1088,84.9571 56.9429,84.7059 56.6851,84.6145 C 55.5553,84.2433 54.7934,83.7149 54.3339,83.1818 C 53.6243,82.3584 53.7897,81.7375 53.8196,80.7204 C 54.1787,81.0406 54.573,81.3309 55.1054,81.5654 C 56.2033,82.0488 57.7063,82.3559 59.7226,82.4799 L 59.7226,82.4799 z M 53.1426,115.6689 C 55.1334,115.505 56.8671,114.5423 58.375,113.1223 C 57.9178,115.3525 57.6651,117.5524 57.9709,119.5881 C 58.0626,120.1987 58.1997,120.7943 58.3864,121.3681 C 57.6184,121.4901 56.9152,121.7845 56.3177,122.0862 C 55.4827,122.5076 54.7605,122.9607 54.5543,123.0413 C 54.1866,123.22 53.7153,124.1978 53.489,124.5476 C 51.2525,125.3494 47.739,125.576 44.5986,125.6864 C 42.9999,125.7426 41.5038,125.7673 40.3004,125.8701 C 39.6987,125.9215 39.1651,125.9897 38.7207,126.0905 C 38.0561,126.2412 37.0511,126.879 36.8104,127.5232 C 36.5148,128.8954 36.1385,130.9943 35.5613,132.446 C 35.4033,133.1328 35.357,133.8591 35.7818,134.4665 C 35.9771,134.7459 36.003,135.2797 35.8552,135.7523 C 35.7388,136.1249 35.6866,136.4854 35.2912,136.3272 C 34.6207,135.6684 34.13,135.2032 33.4306,134.9441 C 32.6638,134.6601 31.5269,134.7074 30.7588,134.9214 C 30.7656,134.8687 30.7745,134.8148 30.7855,134.7604 C 30.888,134.2574 31.212,133.6939 31.4468,133.5481 C 32.0591,133.168 32.4171,132.4964 32.7326,131.5643 C 33.0481,130.6323 33.3227,129.4154 33.5408,127.8906 C 33.5756,127.6426 33.4402,127.4019 33.2102,127.3028 C 32.4993,126.9547 32.1193,126.8063 31.8509,126.6048 C 31.5826,126.4033 31.3425,126.13 30.8957,125.3558 C 30.8448,125.2628 30.7683,125.1863 30.6753,125.1353 C 29.0835,124.2353 28.1106,123.4675 27.1853,122.8209 C 26.26,122.1743 25.3831,121.6336 24.0994,121.3515 C 23.7929,121.2841 23.258,121.1821 23.0322,120.9204 C 23.7085,120.8598 24.5915,120.1374 24.8341,119.5146 C 25.0234,119.0287 25.0528,118.5282 25.1082,117.8684 C 25.1381,117.5106 25.164,117.2686 25.114,116.9153 C 25.3776,116.9639 25.643,117.6083 25.7159,117.7879 C 26.1299,118.8099 27.2434,119.6897 28.4344,120.6167 C 29.6253,121.5437 30.9376,122.4523 31.7407,123.1883 C 31.9219,123.3597 32.1951,123.3896 32.409,123.2612 C 32.6229,123.1329 32.7251,122.8778 32.6591,122.6372 C 32.5832,122.3004 32.4041,121.8581 32.1448,121.2412 C 31.8855,120.6244 31.5241,119.8699 31.1529,119.1105 C 30.4105,117.5917 29.5839,116.0311 28.8385,115.1796 C 28.7779,115.1136 28.7023,115.0632 28.6181,115.0327 C 27.4451,114.5835 26.8119,114.2004 26.5608,113.8204 C 26.3608,113.5178 26.3981,112.9911 26.4873,112.3876 C 26.5011,112.3843 26.5154,112.3819 26.5297,112.3803 C 26.8014,112.4854 27.0487,112.5633 27.2955,112.608 C 27.7096,112.6831 28.1471,112.6718 28.5078,112.4978 C 29.2293,112.1498 29.5325,111.4419 30.0141,110.5141 C 30.0932,110.3742 30.1692,110.2029 30.3079,110.1099 C 30.5685,110.4098 30.7221,111.1706 30.8223,111.5427 C 31.1247,112.666 31.4029,114.1947 31.7039,115.6939 C 32.005,117.1932 32.3263,118.6747 32.7693,119.7718 C 32.9908,120.3203 33.2524,120.7541 33.6143,121.0943 C 33.9761,121.4345 34.5417,121.6197 35.047,121.4249 C 35.2645,121.3465 35.4107,121.1417 35.4144,120.9106 C 35.4569,118.7801 35.0126,116.1276 34.7164,114.0408 C 34.5938,113.1773 34.3594,112.0239 34.4761,111.1477 C 35.4915,111.703 36.1288,112.0015 36.8104,111.9468 C 37.3458,111.9038 37.76,111.6325 38.1626,111.3087 C 38.2338,111.3784 38.329,111.4892 38.3901,111.6529 C 38.5194,111.9998 38.5828,112.5421 38.2799,113.2326 C 37.5828,114.8207 37.5763,116.263 37.5819,117.6042 C 37.5874,118.9455 37.6107,120.1914 37.0676,121.6086 C 36.9961,121.8163 37.0537,122.0467 37.2145,122.1964 C 38.0555,122.962 39.1822,123.2597 40.4106,123.1883 C 41.6389,123.1169 42.987,122.7181 44.415,122.0494 C 47.2058,120.7425 50.2778,118.4611 53.1426,115.6689 L 53.1426,115.6689 z M 115.1119,137.3506 C 118.6475,137.5584 121.548,139.4841 123.032,142.6956 C 124.4846,145.8394 124.59,150.2545 122.4233,155.4615 C 118.6015,158.8076 115.281,160.4084 111.4598,161.5049 C 107.3915,162.6324 104.7923,163.8802 102.8753,165.8003 C 101.7988,166.8786 100.9416,167.6489 101.0633,169.3298 C 101.136,170.334 101.4801,171.5166 101.945,172.8198 C 101.8515,173.3032 101.6696,173.5858 101.247,173.775 C 100.7954,173.9771 100.0116,174.0698 98.9693,173.9219 C 98.7427,173.8978 98.5244,174.0142 98.4182,174.2158 C 96.4949,177.6883 93.5199,179.3552 89.8952,178.9182 C 89.7801,178.9076 89.6645,178.9333 89.5646,178.9916 C 85.54,181.3787 82.5568,183.199 80.3804,184.9798 C 78.204,186.7605 76.8188,188.5395 76.1556,190.7107 C 76.1038,190.8898 76.1452,191.0829 76.2658,191.225 C 77.5239,192.8636 78.1767,194.2132 78.2497,195.1191 C 78.3161,195.9448 77.9312,196.4441 77.2017,196.7724 C 76.5217,196.5245 75.9074,196.3571 75.3474,196.2947 C 74.6832,196.2208 74.0919,196.2769 73.584,196.5151 C 72.5941,196.9794 72.256,198.0337 72.2709,199.0498 C 72.1488,199.0337 72.023,199.0216 71.8942,199.0132 C 70.8672,198.2357 70.0388,197.4281 69.6899,196.5519 C 69.3327,195.6546 69.3927,194.6708 70.1675,193.319 C 70.2213,193.2043 70.2342,193.0747 70.2042,192.9517 C 70.0744,192.3592 69.8725,191.8352 69.543,191.4454 C 69.2135,191.0557 68.7617,190.7925 68.2572,190.7107 C 67.2793,190.5521 66.148,190.9811 64.8407,191.7761 C 63.1719,192.4167 61.8865,192.5277 60.9465,192.2169 C 60.0578,191.9231 59.3859,191.2744 58.9295,190.109 C 59.5226,189.5555 59.986,188.9443 60.1383,188.1759 C 60.3299,187.2094 59.971,186.1366 59.0362,184.943 C 59.0014,184.8994 58.9613,184.8613 58.9174,184.8294 C 58.9329,184.819 58.948,184.808 58.9628,184.7961 C 59.5214,184.356 60.0236,184.1985 60.5792,184.2083 C 61.1246,184.2178 61.7371,184.4259 62.3793,184.7593 C 62.3913,184.7656 62.404,184.753 62.416,184.7593 C 64.4413,186.5176 65.7481,187.2655 66.8245,187.4044 C 67.0502,187.4499 67.2825,187.365 67.4255,187.1845 C 67.5686,187.0041 67.5984,186.7586 67.5025,186.5491 C 67.4067,186.3397 67.2015,186.2018 66.9714,186.192 C 66.3082,186.1065 65.1359,185.5396 63.114,183.7674 C 63.0686,183.7364 63.0192,183.7117 62.9671,183.694 C 62.204,183.2923 61.4353,183.0103 60.6159,182.9959 C 59.7965,182.9816 58.9435,183.2483 58.1913,183.8409 C 58.0278,183.9729 57.9501,184.1714 57.9651,184.3662 C 57.6236,183.9344 57.3559,183.4037 57.2361,182.849 C 57.0705,182.0819 57.1469,181.3033 57.5871,180.6147 C 57.6301,180.6052 57.6725,180.5909 57.7137,180.5713 C 58.5398,180.1642 59.2279,179.7487 59.7342,179.1018 C 60.1153,178.5887 60.6923,176.9864 60.6105,176.1624 C 61.4391,176.6385 62.0476,177.1384 62.4528,177.6324 C 62.9422,178.229 63.1434,178.7979 63.0773,179.5059 C 62.952,180.8326 63.2134,181.9812 63.8488,182.849 C 64.4841,183.7168 65.4428,184.2915 66.6041,184.6491 C 66.9287,184.7505 67.2741,184.5696 67.3755,184.245 C 67.4769,183.9204 67.296,183.575 66.9714,183.4735 C 65.9787,183.1678 65.2789,182.7128 64.8407,182.1143 C 64.4024,181.5157 64.1849,180.7252 64.2896,179.6161 C 64.3848,178.5974 64.0605,177.6564 63.4079,176.8609 C 62.8013,176.1214 61.9499,175.504 60.8664,174.9328 C 60.9371,174.7805 60.9965,174.6262 61.0435,174.4714 C 62.1673,174.4418 63.2636,173.9578 64.2213,173.0996 C 64.7938,173.3152 65.3283,173.8235 65.6856,174.3995 C 65.9026,174.7493 66.0517,175.1144 66.1265,175.4282 C 66.1969,175.7235 66.1887,175.9284 66.1632,176.0159 C 66.1616,176.0214 66.1649,176.0485 66.1632,176.0527 C 65.6021,177.2574 65.4121,178.394 65.6121,179.3957 C 65.8144,180.4081 66.4121,181.2903 67.2286,181.9306 C 68.8615,183.2112 71.3967,183.6987 74.2453,183.4001 C 74.2833,183.3917 74.3202,183.3794 74.3555,183.3633 C 81.2728,181.0824 86.1398,175.0613 88.2421,165.5092 C 88.2484,165.4807 88.2726,165.4642 88.2788,165.4357 C 88.3701,165.1415 88.2057,164.829 87.9115,164.7377 C 87.6173,164.6465 87.3047,164.8109 87.2135,165.105 C 84.8799,170.7503 81.4235,172.9133 78.6537,173.2974 C 81.609,169.8506 83.5214,165.9205 85.9277,161.6886 C 86.0333,161.4828 86.0005,161.2331 85.8453,161.0616 C 85.6901,160.8901 85.445,160.8325 85.2296,160.9171 C 80.2044,162.9619 75.8671,163.7129 72.335,163.3785 C 74.017,162.8302 75.5103,161.7041 76.6332,159.8885 C 82.6704,150.3025 91.692,145.6648 103.3777,145.0467 C 103.3899,145.0471 103.4022,145.0471 103.4144,145.0467 C 107.1271,144.4689 109.9053,143.4918 111.864,142.1078 C 113.6456,140.8488 114.725,139.2359 115.1119,137.3506 L 115.1119,137.3506 z "
   style="fill:#da251d" />
   <path
   id="path64_3"
   class="fil1"
   d="M 82.1184,42.7245 C 82.5182,42.4535 82.9942,42.2571 83.5159,42.1609 C 82.8454,41.9419 82.1613,41.787 81.453,41.6759 C 81.6761,42.0285 81.8983,42.3779 82.1184,42.7245 z M 87.5927,44.5153 C 87.6125,44.6381 87.6229,44.7634 87.6229,44.8907 C 87.6229,45.4812 87.402,46.0288 87.0252,46.4803 C 87.5502,46.3812 88.1144,46.3213 88.7197,46.2979 C 89.2071,46.2791 89.8461,46.3933 90.3728,46.4081 C 89.1162,45.8514 88.4406,45.2327 87.5927,44.5153 L 87.5927,44.5153 z "
   style="fill:#ffffff" />
   <path
   id="path64_4"
   class="fil4"
   d="M 78.2129,38.7301 C 80.4234,42.4852 82.7452,45.8668 84.3882,48.9506 C 85.3337,50.7255 87.95,56.5928 86.1481,58.3843 C 84.7682,59.7564 82.2902,58.4214 81.0108,57.5185 C 79.7466,56.6261 78.6572,55.5698 77.7353,54.4535 C 79.9638,55.2473 82.0945,55.666 83.9071,55.1515 C 84.1819,55.0718 84.3649,54.8126 84.348,54.527 C 84.0936,51.8407 81.953,48.9453 78.764,47.3633 C 75.7536,45.8699 71.726,45.7094 67.596,48.1347 C 67.2437,47.1735 66.934,46.2391 66.8979,45.5264 C 66.8532,44.6419 67.0547,44.0096 67.449,43.5059 C 68.2375,42.4984 70.1355,41.9134 73.5473,42.2568 C 73.7202,42.2707 73.8907,42.2106 74.0168,42.0916 C 74.1429,41.9725 74.2126,41.8057 74.2086,41.6323 C 74.1754,40.8945 74.4924,40.2666 75.2005,39.722 C 75.8385,39.2313 76.9304,38.9063 78.2129,38.7301 L 78.2129,38.7301 z M 138.7186,203.3111 C 140.1306,204.4509 140.7498,205.3208 140.8494,206.25 C 140.8997,206.7208 140.4231,207.7045 140.2248,208.3807 C 140.1029,208.0427 139.9864,207.6763 139.7472,207.4256 C 139.1102,206.7579 138.1239,206.5586 136.6981,206.25 C 136.7672,205.4292 136.8203,204.6739 136.992,204.3397 C 137.1819,203.9701 137.752,203.6548 138.7186,203.3111 L 138.7186,203.3111 z M 109.8801,208.5277 C 110.4472,208.6863 110.9759,208.8475 111.2761,209.0788 C 111.5437,209.2848 111.7589,209.6848 111.9742,210.0707 C 110.9173,210.5321 109.8704,210.9236 108.9985,211.5769 C 108.6667,211.8255 108.3912,212.1698 108.1168,212.4953 C 108.381,211.2309 108.9404,209.9351 109.8801,208.5277 L 109.8801,208.5277 z M 106.7575,201.7681 C 107.0791,202.0374 107.3447,202.2869 107.4188,202.6498 C 107.501,203.0527 107.4232,203.7344 107.3086,204.5234 C 105.7178,204.7754 104.2533,205.3871 103.194,206.5439 C 103.6101,204.219 105.1269,202.6381 106.7575,201.7681 z M 106.4269,194.1636 C 106.936,194.1392 107.4572,194.2292 108.0066,194.3472 C 108.3242,195.2424 108.5435,195.9683 108.4842,196.2576 C 108.4067,196.6349 108.0791,196.7481 107.7861,196.9188 C 107.0557,196.0709 106.053,195.5908 104.9941,195.633 C 104.3837,195.6574 103.7886,195.7769 103.194,196.0372 C 103.624,195.376 104.1132,194.8607 104.7002,194.5677 C 105.2149,194.3108 105.8112,194.193 106.4269,194.1636 L 106.4269,194.1636 z M 74.0984,197.6169 C 74.5044,197.4264 75.5318,197.5885 76.7434,197.9842 C 76.8728,199.7431 76.6996,201.2716 76.1924,202.3192 C 75.7923,203.1454 75.1644,203.6258 74.3923,203.9356 C 74.6193,203.1868 74.9088,202.385 74.8331,201.7681 C 74.7299,200.9269 74.193,200.2224 73.5106,199.3802 C 73.4607,198.8015 73.477,197.9083 74.0984,197.6169 L 74.0984,197.6169 z M 58.2648,186.1916 C 58.7003,186.8929 59.0419,187.5189 58.9628,187.9183 C 58.8845,188.3131 58.435,188.7618 57.9709,189.2041 C 57.2271,188.6021 56.3884,188.2561 55.5462,188.3959 C 55.1207,188.4665 54.7379,188.6753 54.3339,188.9102 C 54.5894,188.547 54.8408,188.2038 55.2156,187.8816 C 56.041,187.1718 57.1826,186.637 58.2648,186.1916 L 58.2648,186.1916 z M 59.2199,177.0809 C 59.0917,177.5523 58.9868,178.1013 58.7791,178.3667 C 58.501,178.722 58.0332,179.0163 57.4565,179.3218 C 56.8456,178.8449 56.0734,178.5983 55.2156,178.5504 C 54.6985,178.5215 54.1731,178.6136 53.6359,178.6606 C 55.0906,177.538 57.0142,177.1716 59.2199,177.0809 L 59.2199,177.0809 z M 62.7467,172.452 C 62.2388,172.7822 61.7205,173.1055 61.2037,173.1501 C 60.807,172.4848 60.2941,172.0566 59.5873,171.7541 C 60.6417,171.1995 62.0229,171.868 62.7467,172.452 L 62.7467,172.452 z M 32.9897,136.0825 C 33.2788,136.1896 33.6604,136.5647 34.0551,136.9275 C 33.4202,137.9786 32.9574,138.9145 32.402,139.4256 C 32.0003,139.7952 31.3561,140.074 30.4916,140.3073 C 31.2214,139.5089 31.7036,138.7447 31.8509,138.0296 C 32.0178,137.2189 31.7951,136.6735 31.6305,136.1193 C 32.1581,136.0659 32.7138,135.9803 32.9897,136.0825 L 32.9897,136.0825 z M 23.879,117.5671 C 23.8107,118.216 23.7835,118.8468 23.6953,119.0733 C 23.6531,119.1818 23.4356,119.2537 23.3647,119.3305 C 23.1188,118.6865 22.6974,118.0776 22.1156,117.6038 C 21.7234,117.2844 21.2458,117.1515 20.7931,116.9059 C 21.8623,116.4826 22.9343,117.0622 23.879,117.5671 L 23.879,117.5671 z M 24.7607,107.9053 C 26.5358,108.2286 27.785,109.2116 28.6915,110.33 C 28.3997,110.8294 28.0942,111.329 27.9568,111.3953 C 27.8643,111.44 27.7633,111.4402 27.5159,111.3953 C 27.3428,111.3639 27.035,111.252 26.7444,111.1382 C 26.8003,110.1436 26.4095,109.2017 25.7159,108.5298 C 25.4399,108.2626 25.0807,108.1294 24.7607,107.9053 z M 34.8266,106.4726 C 35.3991,106.7474 35.8558,107.0702 36.2226,107.5012 C 36.8499,108.2384 37.1664,109.2499 37.3615,110.2932 C 37.1274,110.4675 36.8984,110.6844 36.7369,110.6973 C 36.5311,110.7139 35.999,110.5299 35.3042,110.183 C 35.6038,108.8993 35.5043,107.5933 34.8266,106.4726 L 34.8266,106.4726 z M 28.8017,84.1733 C 29.2565,84.2392 29.6703,84.3077 29.9038,84.3937 C 30.1763,84.494 30.283,84.5945 30.3447,84.6876 C 30.4379,84.8283 30.3454,85.4212 30.2712,86.0469 C 28.8448,86.4465 27.6896,86.7051 26.8547,86.4877 C 26.2043,86.3183 25.5493,85.8408 24.8709,85.1651 C 25.4862,85.1711 26.0387,85.177 26.671,85.1284 C 27.7114,85.0486 28.1744,84.9646 28.8017,84.1733 L 28.8017,84.1733 z M 21.0502,61.7638 C 22.5361,62.0654 23.6809,62.7131 24.3565,63.968 C 24.1595,64.6987 23.9869,65.3404 23.9157,65.4375 C 23.8729,65.4958 23.9211,65.4654 23.8422,65.4742 C 23.7912,65.4799 23.6033,65.4318 23.4381,65.4007 C 23.2077,64.5119 22.7975,63.6409 22.1523,62.8291 C 21.8213,62.4125 21.4216,62.1372 21.0502,61.7638 L 21.0502,61.7638 z M 28.912,56.7675 C 30.102,57.3542 31.2777,58.1404 32.2918,59.1922 C 32.0744,59.659 31.8521,60.0708 31.5937,60.1841 C 31.3625,60.2855 30.8505,60.2276 30.3814,60.2208 C 30.3367,58.6614 29.7808,57.9013 28.912,56.7675 L 28.912,56.7675 z M 38.4636,56.7675 C 39.1301,57.2766 39.7052,57.8211 40.0432,58.4574 C 40.5456,59.4031 40.7027,60.5905 40.5943,62.0944 C 40.1193,62.175 39.5846,62.2596 39.5289,62.2413 C 39.4886,62.2281 39.4236,62.2113 39.2718,62.0576 C 39.1694,61.9539 38.9683,61.7357 38.7942,61.5433 C 39.2971,60.2619 39.3624,59.3033 39.0881,58.4574 C 38.9332,57.9797 38.6806,57.2928 38.4636,56.7675 z "
   style="fill:#c0a062" />
   <path
   id="path16"
   class="fil0"
   d="M 46.7293,195.707 C 44.6204,195.707 42.872,197.4186 42.872,199.5277 C 42.872,201.6366 44.6204,203.3483 46.7293,203.3483 C 48.8385,203.3483 50.55,201.6365 50.55,199.5277 C 50.55,197.4186 48.8385,195.707 46.7293,195.707 z M 38.5737,226.8967 C 38.3396,226.9812 38.1798,227.199 38.1697,227.4477 C 37.7887,230.967 38.3315,234.1908 40.631,236.632 C 40.7769,236.8102 41.0104,236.8916 41.2354,236.8426 C 41.4604,236.7936 41.6389,236.6225 41.6975,236.3998 C 41.756,236.177 41.6846,235.9403 41.5127,235.787 C 39.5122,233.6632 39.0229,230.8751 39.382,227.5579 C 39.4108,227.3469 39.3278,227.1359 39.1629,227.0011 C 38.9981,226.8662 38.7749,226.8266 38.5737,226.8967 z M 42.9087,224.6557 C 42.6312,224.6997 42.4191,224.9269 42.3944,225.2068 C 41.8768,229.2103 42.5394,232.5185 44.415,235.0523 C 44.5239,235.2655 44.7472,235.3956 44.9864,235.3854 C 45.2257,235.3751 45.437,235.2264 45.5274,235.0047 C 45.6178,234.783 45.5707,234.5288 45.4068,234.3543 C 43.7545,232.122 43.1166,229.1455 43.6067,225.3537 C 43.6362,225.1611 43.5722,224.9659 43.4344,224.8281 C 43.2966,224.6903 43.1014,224.6263 42.9087,224.6557 L 42.9087,224.6557 z M 51.9827,199.5277 C 51.7196,199.5863 51.5257,199.81 51.5051,200.0787 C 51.3853,201.0877 51.0885,201.8317 50.7337,202.3197 C 50.3789,202.8077 50.0075,203.0315 49.5948,203.0544 C 49.3574,203.0378 49.1319,203.1601 49.0164,203.3682 C 48.901,203.5763 48.9165,203.8324 49.0563,204.025 C 49.196,204.2177 49.4347,204.3119 49.6683,204.2667 C 50.4858,204.2213 51.2071,203.7675 51.7256,203.0544 C 52.0117,202.661 52.104,202.0118 52.2766,201.4747 C 58.9451,212.8233 73.754,219.5633 93.422,226.6395 C 93.6346,226.7572 93.8967,226.7381 94.0899,226.5907 C 94.2832,226.4434 94.3711,226.1957 94.3139,225.9595 C 94.2567,225.7234 94.0653,225.5433 93.8261,225.5006 C 73.5776,218.2155 58.7275,211.3354 52.6807,199.8583 C 52.5556,199.5968 52.2643,199.4588 51.9827,199.5277 L 51.9827,199.5277 z M 143.274,168.5585 C 143.0634,168.5615 142.8692,168.6724 142.7597,168.8523 C 141.031,171.512 140.5008,174.116 141.2902,176.5304 C 141.3916,176.855 141.737,177.0359 142.0616,176.9344 C 142.3863,176.833 142.5672,176.4876 142.4658,176.163 C 141.8056,174.1438 142.192,171.9695 143.7883,169.5136 C 143.9157,169.3248 143.9279,169.081 143.82,168.8805 C 143.712,168.68 143.5017,168.5559 143.274,168.5585 z M 186.697,174.4731 C 186.3778,174.4857 186.1218,174.7416 186.1092,175.0609 C 185.6415,181.8767 183.935,187.3487 180.5619,190.9679 C 180.3286,191.2216 180.3451,191.6163 180.5987,191.8497 C 180.8523,192.083 181.2471,192.0665 181.4804,191.8129 C 185.1328,187.8939 186.8432,182.1424 187.3216,175.1711 C 187.3468,174.9923 187.292,174.8115 187.1716,174.6769 C 187.0512,174.5423 186.8775,174.4678 186.697,174.4731 L 186.697,174.4731 z M 181.7376,175.5384 C 181.5006,175.6056 181.3268,175.8083 181.2967,176.0528 C 180.3776,182.7372 178.7805,188.8245 175.7494,193.5763 C 175.6154,193.76 175.5943,194.0029 175.6945,194.207 C 175.7947,194.4112 175.9997,194.543 176.2271,194.5494 C 176.4544,194.5558 176.6665,194.4357 176.7781,194.2376 C 179.9576,189.2531 181.5775,183.0106 182.509,176.2365 C 182.5468,176.0281 182.4743,175.8151 182.3173,175.6731 C 182.1603,175.531 181.941,175.4801 181.7376,175.5384 L 181.7376,175.5384 L 181.7376,175.5384 z M 174.0963,178.6244 C 173.8068,178.6894 173.6056,178.9525 173.6187,179.2489 C 173.5989,185.8001 172.5946,190.6585 170.3123,193.613 C 170.1302,193.7775 170.0639,194.0347 170.1437,194.2668 C 170.2236,194.4988 170.4341,194.6608 170.6789,194.6785 C 170.9236,194.6961 171.1553,194.5659 171.2675,194.3477 C 173.8342,191.0249 174.8108,185.9214 174.831,179.2489 C 174.8385,179.0608 174.7591,178.8797 174.6157,178.7577 C 174.4722,178.6358 174.2807,178.5866 174.0963,178.6244 L 174.0963,178.6244 z M 167.7775,178.0365 C 167.5173,178.1298 167.3518,178.3856 167.3734,178.6611 C 167.4631,183.9511 167.1095,188.8982 166.0509,193.3926 C 165.9591,193.6148 166.0057,193.8701 166.1701,194.0455 C 166.3346,194.2209 166.5864,194.2838 166.814,194.2064 C 167.0416,194.1291 167.2029,193.9258 167.2265,193.6865 C 168.3161,189.0603 168.7133,183.986 168.6225,178.6244 C 168.6297,178.4164 168.5309,178.2191 168.3601,178.1003 C 168.1893,177.9814 167.9699,177.9575 167.7775,178.0365 L 167.7775,178.0365 z M 161.0914,173.6649 C 160.7861,173.7487 160.5951,174.0512 160.6506,174.3629 C 161.4959,180.1824 161.844,186.0906 161.569,192.1068 C 161.5588,192.4517 161.8302,192.7396 162.1751,192.7497 C 162.52,192.7599 162.8079,192.4885 162.818,192.1435 C 163.0969,186.0416 162.7179,180.0659 161.8628,174.1792 C 161.8408,174.0025 161.743,173.8442 161.5948,173.7455 C 161.4467,173.6467 161.2629,173.6173 161.0914,173.6649 z M 116.1622,255.8086 C 115.9397,255.849 115.7576,256.0086 115.6885,256.2238 C 115.6193,256.4391 115.6743,256.6748 115.8316,256.8373 C 116.7966,257.9144 118.0941,258.5336 119.5787,258.7108 C 119.8045,258.7564 120.0367,258.6715 120.1798,258.491 C 120.3228,258.3105 120.3526,258.065 120.2568,257.8556 C 120.161,257.6462 119.9558,257.5082 119.7256,257.4985 C 118.4967,257.3518 117.5266,256.8592 116.75,255.9923 C 116.6013,255.8299 116.3769,255.7597 116.1622,255.8086 L 116.1622,255.8086 L 116.1622,255.8086 z M 109.9536,256.5066 C 109.6902,256.5069 109.4565,256.6755 109.3732,256.9254 C 109.2899,257.1753 109.3757,257.4505 109.5863,257.6087 C 110.7911,258.5727 112.3199,259.1302 114.1049,259.519 C 114.4397,259.5901 114.7686,259.3762 114.8396,259.0415 C 114.9106,258.7067 114.6968,258.3777 114.3621,258.3068 C 112.664,257.9369 111.3397,257.4393 110.3577,256.6536 C 110.2452,256.5574 110.1017,256.5052 109.9536,256.5066 L 109.9536,256.5066 z M 175.8596,216.8308 C 175.6824,216.8751 175.5341,216.9964 175.4555,217.1614 C 174.0823,219.6531 172.7184,220.795 171.4512,220.9086 C 171.216,220.9036 170.9988,221.0337 170.8923,221.2434 C 170.7857,221.4531 170.8086,221.7053 170.9512,221.8923 C 171.0939,222.0793 171.331,222.1682 171.5614,222.1209 C 173.453,221.9514 175.0594,220.4011 176.5209,217.7492 C 176.6512,217.5385 176.6419,217.2701 176.4971,217.069 C 176.3524,216.868 176.1008,216.774 175.8596,216.8308 L 175.8596,216.8308 z M 175.3821,212.8264 C 175.2048,212.8708 175.0566,212.9921 174.9779,213.1571 C 173.9223,215.2129 172.5948,216.6905 170.7165,217.3083 C 170.4671,217.3325 170.2575,217.5061 170.1874,217.7467 C 170.1174,217.9873 170.2009,218.2463 170.3984,218.4006 C 170.5958,218.5548 170.8673,218.5733 171.0838,218.4472 C 173.347,217.7027 174.9023,215.9302 176.0433,213.7081 C 176.1507,213.4995 176.1296,213.2479 175.9888,213.0602 C 175.848,212.8725 175.6124,212.7817 175.3821,212.8264 L 175.3821,212.8264 z M 154.9196,214.7735 C 154.8231,214.8007 154.7348,214.8511 154.6624,214.9204 L 152.0174,217.4186 C 151.7836,217.6461 151.7693,218.017 151.9849,218.2619 C 152.2004,218.5069 152.5701,218.5399 152.8256,218.337 L 155.5074,215.8389 C 155.7604,215.6583 155.838,215.3167 155.6878,215.0444 C 155.5376,214.7723 155.2073,214.6557 154.9196,214.7735 L 154.9196,214.7735 z M 149.5927,219.2554 C 149.4997,219.2718 149.4117,219.3095 149.3356,219.3656 C 146.3077,221.5767 143.0192,223.2851 139.3799,224.2149 C 139.1539,224.2596 138.9723,224.4274 138.9096,224.649 C 138.8469,224.8706 138.9139,225.1087 139.0829,225.2651 C 139.2519,225.4216 139.4944,225.47 139.7105,225.3905 C 143.5227,224.4165 146.9052,222.642 150.0335,220.3575 C 150.2598,220.1925 150.3454,219.8951 150.2414,219.6352 C 150.1374,219.3752 149.8703,219.2189 149.5927,219.2554 L 149.5927,219.2554 z M 148.0865,205.9566 C 147.9549,205.9913 147.8386,206.0688 147.7559,206.177 C 146.0992,208.2323 145.1529,210.3624 145.0006,212.4958 C 144.9554,212.7295 145.0496,212.9681 145.2423,213.1078 C 145.4349,213.2476 145.691,213.2631 145.8991,213.1477 C 146.1072,213.0322 146.2295,212.8066 146.2129,212.5693 C 146.344,210.7336 147.1684,208.8623 148.711,206.9485 C 148.8877,206.7447 148.9102,206.4493 148.7665,206.221 C 148.6228,205.9928 148.3466,205.8854 148.0865,205.9566 L 148.0865,205.9566 L 148.0865,205.9566 z M 152.8623,202.687 C 152.762,202.7247 152.6733,202.7881 152.6051,202.8707 C 150.7225,204.7058 149.5849,206.8513 149.7397,209.2997 C 149.7347,209.5348 149.8648,209.7521 150.0745,209.8586 C 150.2842,209.9652 150.5364,209.9422 150.7234,209.7996 C 150.9104,209.657 150.9993,209.4199 150.952,209.1895 C 150.8232,207.1521 151.7284,205.3939 153.4501,203.7157 C 153.6487,203.5207 153.6909,203.2163 153.5528,202.9747 C 153.4147,202.7331 153.1311,202.6149 152.8623,202.687 L 152.8623,202.687 L 152.8623,202.687 z M 101.7613,227.411 C 101.4606,227.4628 101.244,227.7281 101.2532,228.0331 C 101.2625,228.3381 101.4948,228.5897 101.798,228.6233 C 109.9409,230.5422 118.165,230.5633 126.4485,229.2111 C 126.7018,229.2327 126.9421,229.0956 127.0524,228.8664 C 127.1627,228.6374 127.12,228.364 126.9451,228.1795 C 126.7702,227.995 126.4995,227.9377 126.2648,228.0355 C 118.1132,229.3662 110.0601,229.2887 102.0919,227.411 C 101.9838,227.3807 101.8694,227.3807 101.7613,227.411 L 101.7613,227.411 z "
   style="fill:#0a0b0c" />
   <path
   id="path16_5"
   class="fil1"
   d="M 47.5399,197.097 C 47.5938,197.097 47.647,197.0993 47.6997,197.1039 C 47.4001,196.9847 47.0729,196.9191 46.7293,196.9191 C 45.2826,196.9191 44.121,198.0806 44.121,199.5275 C 44.121,200.9742 45.2826,202.1358 46.7293,202.1358 C 48.1763,202.1358 49.3377,200.9742 49.3377,199.5275 C 49.3377,199.4881 49.3366,199.449 49.3349,199.4101 C 49.1301,200.2105 48.404,200.8027 47.5399,200.8027 C 46.5168,200.8027 45.6871,199.9728 45.6871,198.9498 C 45.6871,197.9267 46.5168,197.097 47.5399,197.097 z M 26.1199,184.3919 C 29.1902,191.8746 33.464,199.7295 38.3534,207.2789 C 38.5366,207.9462 38.2856,208.2651 37.9492,208.381 C 37.5968,208.5026 37.0213,208.4431 36.5165,207.4994 C 32.4412,199.8895 29.1086,192.1823 26.1199,184.3919 z "
   style="fill:#ffffff" />
  </g>
 </g>
</svg>